<?xml version="1.0" encoding="utf-8" standalone="no"?>
<!DOCTYPE svg PUBLIC "-//W3C//DTD SVG 1.1//EN"
  "http://www.w3.org/Graphics/SVG/1.1/DTD/svg11.dtd">
<svg xmlns:xlink="http://www.w3.org/1999/xlink" width="712.8pt" height="1144.8pt" viewBox="0 0 712.8 1144.8" xmlns="http://www.w3.org/2000/svg" version="1.1">
 <metadata>
  <rdf:RDF xmlns:dc="http://purl.org/dc/elements/1.1/" xmlns:cc="http://creativecommons.org/ns#" xmlns:rdf="http://www.w3.org/1999/02/22-rdf-syntax-ns#">
   <cc:Work>
    <dc:type rdf:resource="http://purl.org/dc/dcmitype/StillImage"/>
    <dc:date>2025-09-17T17:48:12.258399</dc:date>
    <dc:format>image/svg+xml</dc:format>
    <dc:creator>
     <cc:Agent>
      <dc:title>Matplotlib v3.10.5, https://matplotlib.org/</dc:title>
     </cc:Agent>
    </dc:creator>
   </cc:Work>
  </rdf:RDF>
 </metadata>
 <defs>
  <style type="text/css">*{stroke-linejoin: round; stroke-linecap: butt}</style>
 </defs>
 <g id="figure_1">
  <g id="patch_1">
   <path d="M 0 1144.8 
L 712.8 1144.8 
L 712.8 0 
L 0 0 
z
" style="fill: #ffffff"/>
  </g>
  <g id="axes_1">
   <g id="patch_2">
    <path d="M 63.072 142.848 
L 649.728 142.848 
Q 663.696 142.848 663.696 120.24 
L 663.696 18.504 
Q 663.696 -4.104 649.728 -4.104 
L 63.072 -4.104 
Q 49.104 -4.104 49.104 18.504 
L 49.104 120.24 
Q 49.104 142.848 63.072 142.848 
z
" clip-path="url(#p8865e00dca)" style="fill: #e0f7fa; stroke: #00838f; stroke-width: 2; stroke-linejoin: miter"/>
   </g>
   <g id="patch_3">
    <path d="M 63.072 267.192 
L 649.728 267.192 
Q 663.696 267.192 663.696 244.584 
L 663.696 142.848 
Q 663.696 120.24 649.728 120.24 
L 63.072 120.24 
Q 49.104 120.24 49.104 142.848 
L 49.104 244.584 
Q 49.104 267.192 63.072 267.192 
z
" clip-path="url(#p8865e00dca)" style="fill: #e0f7fa; stroke: #00838f; stroke-width: 2; stroke-linejoin: miter"/>
   </g>
   <g id="patch_4">
    <path d="M 63.072 391.536 
L 649.728 391.536 
Q 663.696 391.536 663.696 368.928 
L 663.696 267.192 
Q 663.696 244.584 649.728 244.584 
L 63.072 244.584 
Q 49.104 244.584 49.104 267.192 
L 49.104 368.928 
Q 49.104 391.536 63.072 391.536 
z
" clip-path="url(#p8865e00dca)" style="fill: #e0f7fa; stroke: #00838f; stroke-width: 2; stroke-linejoin: miter"/>
   </g>
   <g id="patch_5">
    <path d="M 63.072 515.88 
L 649.728 515.88 
Q 663.696 515.88 663.696 493.272 
L 663.696 391.536 
Q 663.696 368.928 649.728 368.928 
L 63.072 368.928 
Q 49.104 368.928 49.104 391.536 
L 49.104 493.272 
Q 49.104 515.88 63.072 515.88 
z
" clip-path="url(#p8865e00dca)" style="fill: #e0f7fa; stroke: #00838f; stroke-width: 2; stroke-linejoin: miter"/>
   </g>
   <g id="patch_6">
    <path d="M 63.072 640.224 
L 649.728 640.224 
Q 663.696 640.224 663.696 617.616 
L 663.696 515.88 
Q 663.696 493.272 649.728 493.272 
L 63.072 493.272 
Q 49.104 493.272 49.104 515.88 
L 49.104 617.616 
Q 49.104 640.224 63.072 640.224 
z
" clip-path="url(#p8865e00dca)" style="fill: #e0f7fa; stroke: #00838f; stroke-width: 2; stroke-linejoin: miter"/>
   </g>
   <g id="patch_7">
    <path d="M 63.072 764.568 
L 649.728 764.568 
Q 663.696 764.568 663.696 741.96 
L 663.696 640.224 
Q 663.696 617.616 649.728 617.616 
L 63.072 617.616 
Q 49.104 617.616 49.104 640.224 
L 49.104 741.96 
Q 49.104 764.568 63.072 764.568 
z
" clip-path="url(#p8865e00dca)" style="fill: #e0f7fa; stroke: #00838f; stroke-width: 2; stroke-linejoin: miter"/>
   </g>
   <g id="patch_8">
    <path d="M 63.072 888.912 
L 649.728 888.912 
Q 663.696 888.912 663.696 866.304 
L 663.696 764.568 
Q 663.696 741.96 649.728 741.96 
L 63.072 741.96 
Q 49.104 741.96 49.104 764.568 
L 49.104 866.304 
Q 49.104 888.912 63.072 888.912 
z
" clip-path="url(#p8865e00dca)" style="fill: #e0f7fa; stroke: #00838f; stroke-width: 2; stroke-linejoin: miter"/>
   </g>
   <g id="patch_9">
    <path d="M 63.072 1013.256 
L 649.728 1013.256 
Q 663.696 1013.256 663.696 990.648 
L 663.696 888.912 
Q 663.696 866.304 649.728 866.304 
L 63.072 866.304 
Q 49.104 866.304 49.104 888.912 
L 49.104 990.648 
Q 49.104 1013.256 63.072 1013.256 
z
" clip-path="url(#p8865e00dca)" style="fill: #e0f7fa; stroke: #00838f; stroke-width: 2; stroke-linejoin: miter"/>
   </g>
   <g id="text_1">
    <!-- Redshift Extrapolation Flow -->
    <g style="fill: #004d40" transform="translate(199.657812 57.93475) scale(0.2 -0.2)">
     <defs>
      <path id="DejaVuSans-Bold-52" d="M 2297 2597 
Q 2675 2597 2839 2737 
Q 3003 2878 3003 3200 
Q 3003 3519 2839 3656 
Q 2675 3794 2297 3794 
L 1791 3794 
L 1791 2597 
L 2297 2597 
z
M 1791 1766 
L 1791 0 
L 588 0 
L 588 4666 
L 2425 4666 
Q 3347 4666 3776 4356 
Q 4206 4047 4206 3378 
Q 4206 2916 3982 2619 
Q 3759 2322 3309 2181 
Q 3556 2125 3751 1926 
Q 3947 1728 4147 1325 
L 4800 0 
L 3519 0 
L 2950 1159 
Q 2778 1509 2601 1637 
Q 2425 1766 2131 1766 
L 1791 1766 
z
" transform="scale(0.015625)"/>
      <path id="DejaVuSans-Bold-65" d="M 4031 1759 
L 4031 1441 
L 1416 1441 
Q 1456 1047 1700 850 
Q 1944 653 2381 653 
Q 2734 653 3104 758 
Q 3475 863 3866 1075 
L 3866 213 
Q 3469 63 3072 -14 
Q 2675 -91 2278 -91 
Q 1328 -91 801 392 
Q 275 875 275 1747 
Q 275 2603 792 3093 
Q 1309 3584 2216 3584 
Q 3041 3584 3536 3087 
Q 4031 2591 4031 1759 
z
M 2881 2131 
Q 2881 2450 2695 2645 
Q 2509 2841 2209 2841 
Q 1884 2841 1681 2658 
Q 1478 2475 1428 2131 
L 2881 2131 
z
" transform="scale(0.015625)"/>
      <path id="DejaVuSans-Bold-64" d="M 2919 2988 
L 2919 4863 
L 4044 4863 
L 4044 0 
L 2919 0 
L 2919 506 
Q 2688 197 2409 53 
Q 2131 -91 1766 -91 
Q 1119 -91 703 423 
Q 288 938 288 1747 
Q 288 2556 703 3070 
Q 1119 3584 1766 3584 
Q 2128 3584 2408 3439 
Q 2688 3294 2919 2988 
z
M 2181 722 
Q 2541 722 2730 984 
Q 2919 1247 2919 1747 
Q 2919 2247 2730 2509 
Q 2541 2772 2181 2772 
Q 1825 2772 1636 2509 
Q 1447 2247 1447 1747 
Q 1447 1247 1636 984 
Q 1825 722 2181 722 
z
" transform="scale(0.015625)"/>
      <path id="DejaVuSans-Bold-73" d="M 3272 3391 
L 3272 2541 
Q 2913 2691 2578 2766 
Q 2244 2841 1947 2841 
Q 1628 2841 1473 2761 
Q 1319 2681 1319 2516 
Q 1319 2381 1436 2309 
Q 1553 2238 1856 2203 
L 2053 2175 
Q 2913 2066 3209 1816 
Q 3506 1566 3506 1031 
Q 3506 472 3093 190 
Q 2681 -91 1863 -91 
Q 1516 -91 1145 -36 
Q 775 19 384 128 
L 384 978 
Q 719 816 1070 734 
Q 1422 653 1784 653 
Q 2113 653 2278 743 
Q 2444 834 2444 1013 
Q 2444 1163 2330 1236 
Q 2216 1309 1875 1350 
L 1678 1375 
Q 931 1469 631 1722 
Q 331 1975 331 2491 
Q 331 3047 712 3315 
Q 1094 3584 1881 3584 
Q 2191 3584 2531 3537 
Q 2872 3491 3272 3391 
z
" transform="scale(0.015625)"/>
      <path id="DejaVuSans-Bold-68" d="M 4056 2131 
L 4056 0 
L 2931 0 
L 2931 347 
L 2931 1625 
Q 2931 2084 2911 2256 
Q 2891 2428 2841 2509 
Q 2775 2619 2662 2680 
Q 2550 2741 2406 2741 
Q 2056 2741 1856 2470 
Q 1656 2200 1656 1722 
L 1656 0 
L 538 0 
L 538 4863 
L 1656 4863 
L 1656 2988 
Q 1909 3294 2193 3439 
Q 2478 3584 2822 3584 
Q 3428 3584 3742 3212 
Q 4056 2841 4056 2131 
z
" transform="scale(0.015625)"/>
      <path id="DejaVuSans-Bold-69" d="M 538 3500 
L 1656 3500 
L 1656 0 
L 538 0 
L 538 3500 
z
M 538 4863 
L 1656 4863 
L 1656 3950 
L 538 3950 
L 538 4863 
z
" transform="scale(0.015625)"/>
      <path id="DejaVuSans-Bold-66" d="M 2841 4863 
L 2841 4128 
L 2222 4128 
Q 1984 4128 1890 4042 
Q 1797 3956 1797 3744 
L 1797 3500 
L 2753 3500 
L 2753 2700 
L 1797 2700 
L 1797 0 
L 678 0 
L 678 2700 
L 122 2700 
L 122 3500 
L 678 3500 
L 678 3744 
Q 678 4316 997 4589 
Q 1316 4863 1984 4863 
L 2841 4863 
z
" transform="scale(0.015625)"/>
      <path id="DejaVuSans-Bold-74" d="M 1759 4494 
L 1759 3500 
L 2913 3500 
L 2913 2700 
L 1759 2700 
L 1759 1216 
Q 1759 972 1856 886 
Q 1953 800 2241 800 
L 2816 800 
L 2816 0 
L 1856 0 
Q 1194 0 917 276 
Q 641 553 641 1216 
L 641 2700 
L 84 2700 
L 84 3500 
L 641 3500 
L 641 4494 
L 1759 4494 
z
" transform="scale(0.015625)"/>
      <path id="DejaVuSans-Bold-20" transform="scale(0.015625)"/>
      <path id="DejaVuSans-Bold-45" d="M 588 4666 
L 3834 4666 
L 3834 3756 
L 1791 3756 
L 1791 2888 
L 3713 2888 
L 3713 1978 
L 1791 1978 
L 1791 909 
L 3903 909 
L 3903 0 
L 588 0 
L 588 4666 
z
" transform="scale(0.015625)"/>
      <path id="DejaVuSans-Bold-78" d="M 1422 1791 
L 159 3500 
L 1344 3500 
L 2059 2463 
L 2784 3500 
L 3969 3500 
L 2706 1797 
L 4031 0 
L 2847 0 
L 2059 1106 
L 1281 0 
L 97 0 
L 1422 1791 
z
" transform="scale(0.015625)"/>
      <path id="DejaVuSans-Bold-72" d="M 3138 2547 
Q 2991 2616 2845 2648 
Q 2700 2681 2553 2681 
Q 2122 2681 1889 2404 
Q 1656 2128 1656 1613 
L 1656 0 
L 538 0 
L 538 3500 
L 1656 3500 
L 1656 2925 
Q 1872 3269 2151 3426 
Q 2431 3584 2822 3584 
Q 2878 3584 2943 3579 
Q 3009 3575 3134 3559 
L 3138 2547 
z
" transform="scale(0.015625)"/>
      <path id="DejaVuSans-Bold-61" d="M 2106 1575 
Q 1756 1575 1579 1456 
Q 1403 1338 1403 1106 
Q 1403 894 1545 773 
Q 1688 653 1941 653 
Q 2256 653 2472 879 
Q 2688 1106 2688 1447 
L 2688 1575 
L 2106 1575 
z
M 3816 1997 
L 3816 0 
L 2688 0 
L 2688 519 
Q 2463 200 2181 54 
Q 1900 -91 1497 -91 
Q 953 -91 614 226 
Q 275 544 275 1050 
Q 275 1666 698 1953 
Q 1122 2241 2028 2241 
L 2688 2241 
L 2688 2328 
Q 2688 2594 2478 2717 
Q 2269 2841 1825 2841 
Q 1466 2841 1156 2769 
Q 847 2697 581 2553 
L 581 3406 
Q 941 3494 1303 3539 
Q 1666 3584 2028 3584 
Q 2975 3584 3395 3211 
Q 3816 2838 3816 1997 
z
" transform="scale(0.015625)"/>
      <path id="DejaVuSans-Bold-70" d="M 1656 506 
L 1656 -1331 
L 538 -1331 
L 538 3500 
L 1656 3500 
L 1656 2988 
Q 1888 3294 2169 3439 
Q 2450 3584 2816 3584 
Q 3463 3584 3878 3070 
Q 4294 2556 4294 1747 
Q 4294 938 3878 423 
Q 3463 -91 2816 -91 
Q 2450 -91 2169 54 
Q 1888 200 1656 506 
z
M 2400 2772 
Q 2041 2772 1848 2508 
Q 1656 2244 1656 1747 
Q 1656 1250 1848 986 
Q 2041 722 2400 722 
Q 2759 722 2948 984 
Q 3138 1247 3138 1747 
Q 3138 2247 2948 2509 
Q 2759 2772 2400 2772 
z
" transform="scale(0.015625)"/>
      <path id="DejaVuSans-Bold-6f" d="M 2203 2784 
Q 1831 2784 1636 2517 
Q 1441 2250 1441 1747 
Q 1441 1244 1636 976 
Q 1831 709 2203 709 
Q 2569 709 2762 976 
Q 2956 1244 2956 1747 
Q 2956 2250 2762 2517 
Q 2569 2784 2203 2784 
z
M 2203 3584 
Q 3106 3584 3614 3096 
Q 4122 2609 4122 1747 
Q 4122 884 3614 396 
Q 3106 -91 2203 -91 
Q 1297 -91 786 396 
Q 275 884 275 1747 
Q 275 2609 786 3096 
Q 1297 3584 2203 3584 
z
" transform="scale(0.015625)"/>
      <path id="DejaVuSans-Bold-6c" d="M 538 4863 
L 1656 4863 
L 1656 0 
L 538 0 
L 538 4863 
z
" transform="scale(0.015625)"/>
      <path id="DejaVuSans-Bold-6e" d="M 4056 2131 
L 4056 0 
L 2931 0 
L 2931 347 
L 2931 1631 
Q 2931 2084 2911 2256 
Q 2891 2428 2841 2509 
Q 2775 2619 2662 2680 
Q 2550 2741 2406 2741 
Q 2056 2741 1856 2470 
Q 1656 2200 1656 1722 
L 1656 0 
L 538 0 
L 538 3500 
L 1656 3500 
L 1656 2988 
Q 1909 3294 2193 3439 
Q 2478 3584 2822 3584 
Q 3428 3584 3742 3212 
Q 4056 2841 4056 2131 
z
" transform="scale(0.015625)"/>
      <path id="DejaVuSans-Bold-46" d="M 588 4666 
L 3834 4666 
L 3834 3756 
L 1791 3756 
L 1791 2888 
L 3713 2888 
L 3713 1978 
L 1791 1978 
L 1791 0 
L 588 0 
L 588 4666 
z
" transform="scale(0.015625)"/>
      <path id="DejaVuSans-Bold-77" d="M 225 3500 
L 1313 3500 
L 1900 1088 
L 2491 3500 
L 3425 3500 
L 4013 1113 
L 4603 3500 
L 5691 3500 
L 4769 0 
L 3547 0 
L 2956 2406 
L 2369 0 
L 1147 0 
L 225 3500 
z
" transform="scale(0.015625)"/>
     </defs>
     <use xlink:href="#DejaVuSans-Bold-52"/>
     <use xlink:href="#DejaVuSans-Bold-65" transform="translate(77.001953 0)"/>
     <use xlink:href="#DejaVuSans-Bold-64" transform="translate(144.824219 0)"/>
     <use xlink:href="#DejaVuSans-Bold-73" transform="translate(216.40625 0)"/>
     <use xlink:href="#DejaVuSans-Bold-68" transform="translate(275.927734 0)"/>
     <use xlink:href="#DejaVuSans-Bold-69" transform="translate(347.119141 0)"/>
     <use xlink:href="#DejaVuSans-Bold-66" transform="translate(381.396484 0)"/>
     <use xlink:href="#DejaVuSans-Bold-74" transform="translate(424.902344 0)"/>
     <use xlink:href="#DejaVuSans-Bold-20" transform="translate(472.705078 0)"/>
     <use xlink:href="#DejaVuSans-Bold-45" transform="translate(507.519531 0)"/>
     <use xlink:href="#DejaVuSans-Bold-78" transform="translate(575.830078 0)"/>
     <use xlink:href="#DejaVuSans-Bold-74" transform="translate(640.332031 0)"/>
     <use xlink:href="#DejaVuSans-Bold-72" transform="translate(688.134766 0)"/>
     <use xlink:href="#DejaVuSans-Bold-61" transform="translate(737.451172 0)"/>
     <use xlink:href="#DejaVuSans-Bold-70" transform="translate(804.931641 0)"/>
     <use xlink:href="#DejaVuSans-Bold-6f" transform="translate(876.513672 0)"/>
     <use xlink:href="#DejaVuSans-Bold-6c" transform="translate(945.214844 0)"/>
     <use xlink:href="#DejaVuSans-Bold-61" transform="translate(979.492188 0)"/>
     <use xlink:href="#DejaVuSans-Bold-74" transform="translate(1046.972656 0)"/>
     <use xlink:href="#DejaVuSans-Bold-69" transform="translate(1094.775391 0)"/>
     <use xlink:href="#DejaVuSans-Bold-6f" transform="translate(1129.052734 0)"/>
     <use xlink:href="#DejaVuSans-Bold-6e" transform="translate(1197.753906 0)"/>
     <use xlink:href="#DejaVuSans-Bold-20" transform="translate(1268.945312 0)"/>
     <use xlink:href="#DejaVuSans-Bold-46" transform="translate(1303.759766 0)"/>
     <use xlink:href="#DejaVuSans-Bold-6c" transform="translate(1372.070312 0)"/>
     <use xlink:href="#DejaVuSans-Bold-6f" transform="translate(1406.347656 0)"/>
     <use xlink:href="#DejaVuSans-Bold-77" transform="translate(1475.048828 0)"/>
    </g>
   </g>
   <g id="text_2">
    <!-- Inputs -->
    <g style="fill: #006064" transform="translate(73.548 53.2695) scale(0.16 -0.16)">
     <defs>
      <path id="DejaVuSans-Bold-49" d="M 588 4666 
L 1791 4666 
L 1791 0 
L 588 0 
L 588 4666 
z
" transform="scale(0.015625)"/>
      <path id="DejaVuSans-Bold-75" d="M 500 1363 
L 500 3500 
L 1625 3500 
L 1625 3150 
Q 1625 2866 1622 2436 
Q 1619 2006 1619 1863 
Q 1619 1441 1641 1255 
Q 1663 1069 1716 984 
Q 1784 875 1895 815 
Q 2006 756 2150 756 
Q 2500 756 2700 1025 
Q 2900 1294 2900 1772 
L 2900 3500 
L 4019 3500 
L 4019 0 
L 2900 0 
L 2900 506 
Q 2647 200 2364 54 
Q 2081 -91 1741 -91 
Q 1134 -91 817 281 
Q 500 653 500 1363 
z
" transform="scale(0.015625)"/>
     </defs>
     <use xlink:href="#DejaVuSans-Bold-49"/>
     <use xlink:href="#DejaVuSans-Bold-6e" transform="translate(37.207031 0)"/>
     <use xlink:href="#DejaVuSans-Bold-70" transform="translate(108.398438 0)"/>
     <use xlink:href="#DejaVuSans-Bold-75" transform="translate(179.980469 0)"/>
     <use xlink:href="#DejaVuSans-Bold-74" transform="translate(251.171875 0)"/>
     <use xlink:href="#DejaVuSans-Bold-73" transform="translate(298.974609 0)"/>
    </g>
   </g>
   <g id="text_3">
    <!-- Model, params, RSP, -->
    <g style="fill: #333333" transform="translate(73.548 80.37125) scale(0.13 -0.13)">
     <defs>
      <path id="DejaVuSans-4d" d="M 628 4666 
L 1569 4666 
L 2759 1491 
L 3956 4666 
L 4897 4666 
L 4897 0 
L 4281 0 
L 4281 4097 
L 3078 897 
L 2444 897 
L 1241 4097 
L 1241 0 
L 628 0 
L 628 4666 
z
" transform="scale(0.015625)"/>
      <path id="DejaVuSans-6f" d="M 1959 3097 
Q 1497 3097 1228 2736 
Q 959 2375 959 1747 
Q 959 1119 1226 758 
Q 1494 397 1959 397 
Q 2419 397 2687 759 
Q 2956 1122 2956 1747 
Q 2956 2369 2687 2733 
Q 2419 3097 1959 3097 
z
M 1959 3584 
Q 2709 3584 3137 3096 
Q 3566 2609 3566 1747 
Q 3566 888 3137 398 
Q 2709 -91 1959 -91 
Q 1206 -91 779 398 
Q 353 888 353 1747 
Q 353 2609 779 3096 
Q 1206 3584 1959 3584 
z
" transform="scale(0.015625)"/>
      <path id="DejaVuSans-64" d="M 2906 2969 
L 2906 4863 
L 3481 4863 
L 3481 0 
L 2906 0 
L 2906 525 
Q 2725 213 2448 61 
Q 2172 -91 1784 -91 
Q 1150 -91 751 415 
Q 353 922 353 1747 
Q 353 2572 751 3078 
Q 1150 3584 1784 3584 
Q 2172 3584 2448 3432 
Q 2725 3281 2906 2969 
z
M 947 1747 
Q 947 1113 1208 752 
Q 1469 391 1925 391 
Q 2381 391 2643 752 
Q 2906 1113 2906 1747 
Q 2906 2381 2643 2742 
Q 2381 3103 1925 3103 
Q 1469 3103 1208 2742 
Q 947 2381 947 1747 
z
" transform="scale(0.015625)"/>
      <path id="DejaVuSans-65" d="M 3597 1894 
L 3597 1613 
L 953 1613 
Q 991 1019 1311 708 
Q 1631 397 2203 397 
Q 2534 397 2845 478 
Q 3156 559 3463 722 
L 3463 178 
Q 3153 47 2828 -22 
Q 2503 -91 2169 -91 
Q 1331 -91 842 396 
Q 353 884 353 1716 
Q 353 2575 817 3079 
Q 1281 3584 2069 3584 
Q 2775 3584 3186 3129 
Q 3597 2675 3597 1894 
z
M 3022 2063 
Q 3016 2534 2758 2815 
Q 2500 3097 2075 3097 
Q 1594 3097 1305 2825 
Q 1016 2553 972 2059 
L 3022 2063 
z
" transform="scale(0.015625)"/>
      <path id="DejaVuSans-6c" d="M 603 4863 
L 1178 4863 
L 1178 0 
L 603 0 
L 603 4863 
z
" transform="scale(0.015625)"/>
      <path id="DejaVuSans-2c" d="M 750 794 
L 1409 794 
L 1409 256 
L 897 -744 
L 494 -744 
L 750 256 
L 750 794 
z
" transform="scale(0.015625)"/>
      <path id="DejaVuSans-20" transform="scale(0.015625)"/>
      <path id="DejaVuSans-70" d="M 1159 525 
L 1159 -1331 
L 581 -1331 
L 581 3500 
L 1159 3500 
L 1159 2969 
Q 1341 3281 1617 3432 
Q 1894 3584 2278 3584 
Q 2916 3584 3314 3078 
Q 3713 2572 3713 1747 
Q 3713 922 3314 415 
Q 2916 -91 2278 -91 
Q 1894 -91 1617 61 
Q 1341 213 1159 525 
z
M 3116 1747 
Q 3116 2381 2855 2742 
Q 2594 3103 2138 3103 
Q 1681 3103 1420 2742 
Q 1159 2381 1159 1747 
Q 1159 1113 1420 752 
Q 1681 391 2138 391 
Q 2594 391 2855 752 
Q 3116 1113 3116 1747 
z
" transform="scale(0.015625)"/>
      <path id="DejaVuSans-61" d="M 2194 1759 
Q 1497 1759 1228 1600 
Q 959 1441 959 1056 
Q 959 750 1161 570 
Q 1363 391 1709 391 
Q 2188 391 2477 730 
Q 2766 1069 2766 1631 
L 2766 1759 
L 2194 1759 
z
M 3341 1997 
L 3341 0 
L 2766 0 
L 2766 531 
Q 2569 213 2275 61 
Q 1981 -91 1556 -91 
Q 1019 -91 701 211 
Q 384 513 384 1019 
Q 384 1609 779 1909 
Q 1175 2209 1959 2209 
L 2766 2209 
L 2766 2266 
Q 2766 2663 2505 2880 
Q 2244 3097 1772 3097 
Q 1472 3097 1187 3025 
Q 903 2953 641 2809 
L 641 3341 
Q 956 3463 1253 3523 
Q 1550 3584 1831 3584 
Q 2591 3584 2966 3190 
Q 3341 2797 3341 1997 
z
" transform="scale(0.015625)"/>
      <path id="DejaVuSans-72" d="M 2631 2963 
Q 2534 3019 2420 3045 
Q 2306 3072 2169 3072 
Q 1681 3072 1420 2755 
Q 1159 2438 1159 1844 
L 1159 0 
L 581 0 
L 581 3500 
L 1159 3500 
L 1159 2956 
Q 1341 3275 1631 3429 
Q 1922 3584 2338 3584 
Q 2397 3584 2469 3576 
Q 2541 3569 2628 3553 
L 2631 2963 
z
" transform="scale(0.015625)"/>
      <path id="DejaVuSans-6d" d="M 3328 2828 
Q 3544 3216 3844 3400 
Q 4144 3584 4550 3584 
Q 5097 3584 5394 3201 
Q 5691 2819 5691 2113 
L 5691 0 
L 5113 0 
L 5113 2094 
Q 5113 2597 4934 2840 
Q 4756 3084 4391 3084 
Q 3944 3084 3684 2787 
Q 3425 2491 3425 1978 
L 3425 0 
L 2847 0 
L 2847 2094 
Q 2847 2600 2669 2842 
Q 2491 3084 2119 3084 
Q 1678 3084 1418 2786 
Q 1159 2488 1159 1978 
L 1159 0 
L 581 0 
L 581 3500 
L 1159 3500 
L 1159 2956 
Q 1356 3278 1631 3431 
Q 1906 3584 2284 3584 
Q 2666 3584 2933 3390 
Q 3200 3197 3328 2828 
z
" transform="scale(0.015625)"/>
      <path id="DejaVuSans-73" d="M 2834 3397 
L 2834 2853 
Q 2591 2978 2328 3040 
Q 2066 3103 1784 3103 
Q 1356 3103 1142 2972 
Q 928 2841 928 2578 
Q 928 2378 1081 2264 
Q 1234 2150 1697 2047 
L 1894 2003 
Q 2506 1872 2764 1633 
Q 3022 1394 3022 966 
Q 3022 478 2636 193 
Q 2250 -91 1575 -91 
Q 1294 -91 989 -36 
Q 684 19 347 128 
L 347 722 
Q 666 556 975 473 
Q 1284 391 1588 391 
Q 1994 391 2212 530 
Q 2431 669 2431 922 
Q 2431 1156 2273 1281 
Q 2116 1406 1581 1522 
L 1381 1569 
Q 847 1681 609 1914 
Q 372 2147 372 2553 
Q 372 3047 722 3315 
Q 1072 3584 1716 3584 
Q 2034 3584 2315 3537 
Q 2597 3491 2834 3397 
z
" transform="scale(0.015625)"/>
      <path id="DejaVuSans-52" d="M 2841 2188 
Q 3044 2119 3236 1894 
Q 3428 1669 3622 1275 
L 4263 0 
L 3584 0 
L 2988 1197 
Q 2756 1666 2539 1819 
Q 2322 1972 1947 1972 
L 1259 1972 
L 1259 0 
L 628 0 
L 628 4666 
L 2053 4666 
Q 2853 4666 3247 4331 
Q 3641 3997 3641 3322 
Q 3641 2881 3436 2590 
Q 3231 2300 2841 2188 
z
M 1259 4147 
L 1259 2491 
L 2053 2491 
Q 2509 2491 2742 2702 
Q 2975 2913 2975 3322 
Q 2975 3731 2742 3939 
Q 2509 4147 2053 4147 
L 1259 4147 
z
" transform="scale(0.015625)"/>
      <path id="DejaVuSans-53" d="M 3425 4513 
L 3425 3897 
Q 3066 4069 2747 4153 
Q 2428 4238 2131 4238 
Q 1616 4238 1336 4038 
Q 1056 3838 1056 3469 
Q 1056 3159 1242 3001 
Q 1428 2844 1947 2747 
L 2328 2669 
Q 3034 2534 3370 2195 
Q 3706 1856 3706 1288 
Q 3706 609 3251 259 
Q 2797 -91 1919 -91 
Q 1588 -91 1214 -16 
Q 841 59 441 206 
L 441 856 
Q 825 641 1194 531 
Q 1563 422 1919 422 
Q 2459 422 2753 634 
Q 3047 847 3047 1241 
Q 3047 1584 2836 1778 
Q 2625 1972 2144 2069 
L 1759 2144 
Q 1053 2284 737 2584 
Q 422 2884 422 3419 
Q 422 4038 858 4394 
Q 1294 4750 2059 4750 
Q 2388 4750 2728 4690 
Q 3069 4631 3425 4513 
z
" transform="scale(0.015625)"/>
      <path id="DejaVuSans-50" d="M 1259 4147 
L 1259 2394 
L 2053 2394 
Q 2494 2394 2734 2622 
Q 2975 2850 2975 3272 
Q 2975 3691 2734 3919 
Q 2494 4147 2053 4147 
L 1259 4147 
z
M 628 4666 
L 2053 4666 
Q 2838 4666 3239 4311 
Q 3641 3956 3641 3272 
Q 3641 2581 3239 2228 
Q 2838 1875 2053 1875 
L 1259 1875 
L 1259 0 
L 628 0 
L 628 4666 
z
" transform="scale(0.015625)"/>
     </defs>
     <use xlink:href="#DejaVuSans-4d"/>
     <use xlink:href="#DejaVuSans-6f" transform="translate(86.279297 0)"/>
     <use xlink:href="#DejaVuSans-64" transform="translate(147.460938 0)"/>
     <use xlink:href="#DejaVuSans-65" transform="translate(210.9375 0)"/>
     <use xlink:href="#DejaVuSans-6c" transform="translate(272.460938 0)"/>
     <use xlink:href="#DejaVuSans-2c" transform="translate(300.244141 0)"/>
     <use xlink:href="#DejaVuSans-20" transform="translate(332.03125 0)"/>
     <use xlink:href="#DejaVuSans-70" transform="translate(363.818359 0)"/>
     <use xlink:href="#DejaVuSans-61" transform="translate(427.294922 0)"/>
     <use xlink:href="#DejaVuSans-72" transform="translate(488.574219 0)"/>
     <use xlink:href="#DejaVuSans-61" transform="translate(529.6875 0)"/>
     <use xlink:href="#DejaVuSans-6d" transform="translate(590.966797 0)"/>
     <use xlink:href="#DejaVuSans-73" transform="translate(688.378906 0)"/>
     <use xlink:href="#DejaVuSans-2c" transform="translate(740.478516 0)"/>
     <use xlink:href="#DejaVuSans-20" transform="translate(772.265625 0)"/>
     <use xlink:href="#DejaVuSans-52" transform="translate(804.052734 0)"/>
     <use xlink:href="#DejaVuSans-53" transform="translate(873.535156 0)"/>
     <use xlink:href="#DejaVuSans-50" transform="translate(937.011719 0)"/>
     <use xlink:href="#DejaVuSans-2c" transform="translate(997.314453 0)"/>
    </g>
    <!-- counts, exposure, alpha, z0 -->
    <g style="fill: #333333" transform="translate(73.548 94.928406) scale(0.13 -0.13)">
     <defs>
      <path id="DejaVuSans-63" d="M 3122 3366 
L 3122 2828 
Q 2878 2963 2633 3030 
Q 2388 3097 2138 3097 
Q 1578 3097 1268 2742 
Q 959 2388 959 1747 
Q 959 1106 1268 751 
Q 1578 397 2138 397 
Q 2388 397 2633 464 
Q 2878 531 3122 666 
L 3122 134 
Q 2881 22 2623 -34 
Q 2366 -91 2075 -91 
Q 1284 -91 818 406 
Q 353 903 353 1747 
Q 353 2603 823 3093 
Q 1294 3584 2113 3584 
Q 2378 3584 2631 3529 
Q 2884 3475 3122 3366 
z
" transform="scale(0.015625)"/>
      <path id="DejaVuSans-75" d="M 544 1381 
L 544 3500 
L 1119 3500 
L 1119 1403 
Q 1119 906 1312 657 
Q 1506 409 1894 409 
Q 2359 409 2629 706 
Q 2900 1003 2900 1516 
L 2900 3500 
L 3475 3500 
L 3475 0 
L 2900 0 
L 2900 538 
Q 2691 219 2414 64 
Q 2138 -91 1772 -91 
Q 1169 -91 856 284 
Q 544 659 544 1381 
z
M 1991 3584 
L 1991 3584 
z
" transform="scale(0.015625)"/>
      <path id="DejaVuSans-6e" d="M 3513 2113 
L 3513 0 
L 2938 0 
L 2938 2094 
Q 2938 2591 2744 2837 
Q 2550 3084 2163 3084 
Q 1697 3084 1428 2787 
Q 1159 2491 1159 1978 
L 1159 0 
L 581 0 
L 581 3500 
L 1159 3500 
L 1159 2956 
Q 1366 3272 1645 3428 
Q 1925 3584 2291 3584 
Q 2894 3584 3203 3211 
Q 3513 2838 3513 2113 
z
" transform="scale(0.015625)"/>
      <path id="DejaVuSans-74" d="M 1172 4494 
L 1172 3500 
L 2356 3500 
L 2356 3053 
L 1172 3053 
L 1172 1153 
Q 1172 725 1289 603 
Q 1406 481 1766 481 
L 2356 481 
L 2356 0 
L 1766 0 
Q 1100 0 847 248 
Q 594 497 594 1153 
L 594 3053 
L 172 3053 
L 172 3500 
L 594 3500 
L 594 4494 
L 1172 4494 
z
" transform="scale(0.015625)"/>
      <path id="DejaVuSans-78" d="M 3513 3500 
L 2247 1797 
L 3578 0 
L 2900 0 
L 1881 1375 
L 863 0 
L 184 0 
L 1544 1831 
L 300 3500 
L 978 3500 
L 1906 2253 
L 2834 3500 
L 3513 3500 
z
" transform="scale(0.015625)"/>
      <path id="DejaVuSans-68" d="M 3513 2113 
L 3513 0 
L 2938 0 
L 2938 2094 
Q 2938 2591 2744 2837 
Q 2550 3084 2163 3084 
Q 1697 3084 1428 2787 
Q 1159 2491 1159 1978 
L 1159 0 
L 581 0 
L 581 4863 
L 1159 4863 
L 1159 2956 
Q 1366 3272 1645 3428 
Q 1925 3584 2291 3584 
Q 2894 3584 3203 3211 
Q 3513 2838 3513 2113 
z
" transform="scale(0.015625)"/>
      <path id="DejaVuSans-7a" d="M 353 3500 
L 3084 3500 
L 3084 2975 
L 922 459 
L 3084 459 
L 3084 0 
L 275 0 
L 275 525 
L 2438 3041 
L 353 3041 
L 353 3500 
z
" transform="scale(0.015625)"/>
      <path id="DejaVuSans-30" d="M 2034 4250 
Q 1547 4250 1301 3770 
Q 1056 3291 1056 2328 
Q 1056 1369 1301 889 
Q 1547 409 2034 409 
Q 2525 409 2770 889 
Q 3016 1369 3016 2328 
Q 3016 3291 2770 3770 
Q 2525 4250 2034 4250 
z
M 2034 4750 
Q 2819 4750 3233 4129 
Q 3647 3509 3647 2328 
Q 3647 1150 3233 529 
Q 2819 -91 2034 -91 
Q 1250 -91 836 529 
Q 422 1150 422 2328 
Q 422 3509 836 4129 
Q 1250 4750 2034 4750 
z
" transform="scale(0.015625)"/>
     </defs>
     <use xlink:href="#DejaVuSans-63"/>
     <use xlink:href="#DejaVuSans-6f" transform="translate(54.980469 0)"/>
     <use xlink:href="#DejaVuSans-75" transform="translate(116.162109 0)"/>
     <use xlink:href="#DejaVuSans-6e" transform="translate(179.541016 0)"/>
     <use xlink:href="#DejaVuSans-74" transform="translate(242.919922 0)"/>
     <use xlink:href="#DejaVuSans-73" transform="translate(282.128906 0)"/>
     <use xlink:href="#DejaVuSans-2c" transform="translate(334.228516 0)"/>
     <use xlink:href="#DejaVuSans-20" transform="translate(366.015625 0)"/>
     <use xlink:href="#DejaVuSans-65" transform="translate(397.802734 0)"/>
     <use xlink:href="#DejaVuSans-78" transform="translate(457.576172 0)"/>
     <use xlink:href="#DejaVuSans-70" transform="translate(516.755859 0)"/>
     <use xlink:href="#DejaVuSans-6f" transform="translate(580.232422 0)"/>
     <use xlink:href="#DejaVuSans-73" transform="translate(641.414062 0)"/>
     <use xlink:href="#DejaVuSans-75" transform="translate(693.513672 0)"/>
     <use xlink:href="#DejaVuSans-72" transform="translate(756.892578 0)"/>
     <use xlink:href="#DejaVuSans-65" transform="translate(795.755859 0)"/>
     <use xlink:href="#DejaVuSans-2c" transform="translate(857.279297 0)"/>
     <use xlink:href="#DejaVuSans-20" transform="translate(889.066406 0)"/>
     <use xlink:href="#DejaVuSans-61" transform="translate(920.853516 0)"/>
     <use xlink:href="#DejaVuSans-6c" transform="translate(982.132812 0)"/>
     <use xlink:href="#DejaVuSans-70" transform="translate(1009.916016 0)"/>
     <use xlink:href="#DejaVuSans-68" transform="translate(1073.392578 0)"/>
     <use xlink:href="#DejaVuSans-61" transform="translate(1136.771484 0)"/>
     <use xlink:href="#DejaVuSans-2c" transform="translate(1198.050781 0)"/>
     <use xlink:href="#DejaVuSans-20" transform="translate(1229.837891 0)"/>
     <use xlink:href="#DejaVuSans-7a" transform="translate(1261.625 0)"/>
     <use xlink:href="#DejaVuSans-30" transform="translate(1314.115234 0)"/>
    </g>
   </g>
   <g id="patch_10">
    <path d="M 356.4 122.24083 
Q 356.4 131.544494 356.4 138.612091 
" style="fill: none; stroke: #00838f; stroke-width: 2; stroke-linecap: round"/>
    <path d="M 358.4 134.612091 
L 356.4 138.612091 
L 354.4 134.612091 
" style="fill: none; stroke: #00838f; stroke-width: 2; stroke-linecap: round"/>
   </g>
   <g id="text_4">
    <!-- Init Model -->
    <g style="fill: #006064" transform="translate(73.548 177.6135) scale(0.16 -0.16)">
     <defs>
      <path id="DejaVuSans-Bold-4d" d="M 588 4666 
L 2119 4666 
L 3181 2169 
L 4250 4666 
L 5778 4666 
L 5778 0 
L 4641 0 
L 4641 3413 
L 3566 897 
L 2803 897 
L 1728 3413 
L 1728 0 
L 588 0 
L 588 4666 
z
" transform="scale(0.015625)"/>
     </defs>
     <use xlink:href="#DejaVuSans-Bold-49"/>
     <use xlink:href="#DejaVuSans-Bold-6e" transform="translate(37.207031 0)"/>
     <use xlink:href="#DejaVuSans-Bold-69" transform="translate(108.398438 0)"/>
     <use xlink:href="#DejaVuSans-Bold-74" transform="translate(142.675781 0)"/>
     <use xlink:href="#DejaVuSans-Bold-20" transform="translate(190.478516 0)"/>
     <use xlink:href="#DejaVuSans-Bold-4d" transform="translate(225.292969 0)"/>
     <use xlink:href="#DejaVuSans-Bold-6f" transform="translate(324.804688 0)"/>
     <use xlink:href="#DejaVuSans-Bold-64" transform="translate(393.505859 0)"/>
     <use xlink:href="#DejaVuSans-Bold-65" transform="translate(465.087891 0)"/>
     <use xlink:href="#DejaVuSans-Bold-6c" transform="translate(532.910156 0)"/>
    </g>
   </g>
   <g id="text_5">
    <!-- XSPEC model + set params -->
    <g style="fill: #333333" transform="translate(73.548 204.71525) scale(0.13 -0.13)">
     <defs>
      <path id="DejaVuSans-58" d="M 403 4666 
L 1081 4666 
L 2241 2931 
L 3406 4666 
L 4084 4666 
L 2584 2425 
L 4184 0 
L 3506 0 
L 2194 1984 
L 872 0 
L 191 0 
L 1856 2491 
L 403 4666 
z
" transform="scale(0.015625)"/>
      <path id="DejaVuSans-45" d="M 628 4666 
L 3578 4666 
L 3578 4134 
L 1259 4134 
L 1259 2753 
L 3481 2753 
L 3481 2222 
L 1259 2222 
L 1259 531 
L 3634 531 
L 3634 0 
L 628 0 
L 628 4666 
z
" transform="scale(0.015625)"/>
      <path id="DejaVuSans-43" d="M 4122 4306 
L 4122 3641 
Q 3803 3938 3442 4084 
Q 3081 4231 2675 4231 
Q 1875 4231 1450 3742 
Q 1025 3253 1025 2328 
Q 1025 1406 1450 917 
Q 1875 428 2675 428 
Q 3081 428 3442 575 
Q 3803 722 4122 1019 
L 4122 359 
Q 3791 134 3420 21 
Q 3050 -91 2638 -91 
Q 1578 -91 968 557 
Q 359 1206 359 2328 
Q 359 3453 968 4101 
Q 1578 4750 2638 4750 
Q 3056 4750 3426 4639 
Q 3797 4528 4122 4306 
z
" transform="scale(0.015625)"/>
      <path id="DejaVuSans-2b" d="M 2944 4013 
L 2944 2272 
L 4684 2272 
L 4684 1741 
L 2944 1741 
L 2944 0 
L 2419 0 
L 2419 1741 
L 678 1741 
L 678 2272 
L 2419 2272 
L 2419 4013 
L 2944 4013 
z
" transform="scale(0.015625)"/>
     </defs>
     <use xlink:href="#DejaVuSans-58"/>
     <use xlink:href="#DejaVuSans-53" transform="translate(68.505859 0)"/>
     <use xlink:href="#DejaVuSans-50" transform="translate(131.982422 0)"/>
     <use xlink:href="#DejaVuSans-45" transform="translate(192.285156 0)"/>
     <use xlink:href="#DejaVuSans-43" transform="translate(255.46875 0)"/>
     <use xlink:href="#DejaVuSans-20" transform="translate(325.292969 0)"/>
     <use xlink:href="#DejaVuSans-6d" transform="translate(357.080078 0)"/>
     <use xlink:href="#DejaVuSans-6f" transform="translate(454.492188 0)"/>
     <use xlink:href="#DejaVuSans-64" transform="translate(515.673828 0)"/>
     <use xlink:href="#DejaVuSans-65" transform="translate(579.150391 0)"/>
     <use xlink:href="#DejaVuSans-6c" transform="translate(640.673828 0)"/>
     <use xlink:href="#DejaVuSans-20" transform="translate(668.457031 0)"/>
     <use xlink:href="#DejaVuSans-2b" transform="translate(700.244141 0)"/>
     <use xlink:href="#DejaVuSans-20" transform="translate(784.033203 0)"/>
     <use xlink:href="#DejaVuSans-73" transform="translate(815.820312 0)"/>
     <use xlink:href="#DejaVuSans-65" transform="translate(867.919922 0)"/>
     <use xlink:href="#DejaVuSans-74" transform="translate(929.443359 0)"/>
     <use xlink:href="#DejaVuSans-20" transform="translate(968.652344 0)"/>
     <use xlink:href="#DejaVuSans-70" transform="translate(1000.439453 0)"/>
     <use xlink:href="#DejaVuSans-61" transform="translate(1063.916016 0)"/>
     <use xlink:href="#DejaVuSans-72" transform="translate(1125.195312 0)"/>
     <use xlink:href="#DejaVuSans-61" transform="translate(1166.308594 0)"/>
     <use xlink:href="#DejaVuSans-6d" transform="translate(1227.587891 0)"/>
     <use xlink:href="#DejaVuSans-73" transform="translate(1325 0)"/>
    </g>
    <!-- Freeze constants -->
    <g style="fill: #333333" transform="translate(73.548 219.272406) scale(0.13 -0.13)">
     <defs>
      <path id="DejaVuSans-46" d="M 628 4666 
L 3309 4666 
L 3309 4134 
L 1259 4134 
L 1259 2759 
L 3109 2759 
L 3109 2228 
L 1259 2228 
L 1259 0 
L 628 0 
L 628 4666 
z
" transform="scale(0.015625)"/>
     </defs>
     <use xlink:href="#DejaVuSans-46"/>
     <use xlink:href="#DejaVuSans-72" transform="translate(50.269531 0)"/>
     <use xlink:href="#DejaVuSans-65" transform="translate(89.132812 0)"/>
     <use xlink:href="#DejaVuSans-65" transform="translate(150.65625 0)"/>
     <use xlink:href="#DejaVuSans-7a" transform="translate(212.179688 0)"/>
     <use xlink:href="#DejaVuSans-65" transform="translate(264.669922 0)"/>
     <use xlink:href="#DejaVuSans-20" transform="translate(326.193359 0)"/>
     <use xlink:href="#DejaVuSans-63" transform="translate(357.980469 0)"/>
     <use xlink:href="#DejaVuSans-6f" transform="translate(412.960938 0)"/>
     <use xlink:href="#DejaVuSans-6e" transform="translate(474.142578 0)"/>
     <use xlink:href="#DejaVuSans-73" transform="translate(537.521484 0)"/>
     <use xlink:href="#DejaVuSans-74" transform="translate(589.621094 0)"/>
     <use xlink:href="#DejaVuSans-61" transform="translate(628.830078 0)"/>
     <use xlink:href="#DejaVuSans-6e" transform="translate(690.109375 0)"/>
     <use xlink:href="#DejaVuSans-74" transform="translate(753.488281 0)"/>
     <use xlink:href="#DejaVuSans-73" transform="translate(792.697266 0)"/>
    </g>
   </g>
   <g id="patch_11">
    <path d="M 356.4 246.58483 
Q 356.4 255.888494 356.4 262.956091 
" style="fill: none; stroke: #00838f; stroke-width: 2; stroke-linecap: round"/>
    <path d="M 358.4 258.956091 
L 356.4 262.956091 
L 354.4 258.956091 
" style="fill: none; stroke: #00838f; stroke-width: 2; stroke-linecap: round"/>
   </g>
   <g id="text_6">
    <!-- Redshift Grid -->
    <g style="fill: #006064" transform="translate(73.548 301.9575) scale(0.16 -0.16)">
     <defs>
      <path id="DejaVuSans-Bold-47" d="M 4781 347 
Q 4331 128 3847 18 
Q 3363 -91 2847 -91 
Q 1681 -91 1000 561 
Q 319 1213 319 2328 
Q 319 3456 1012 4103 
Q 1706 4750 2913 4750 
Q 3378 4750 3804 4662 
Q 4231 4575 4609 4403 
L 4609 3438 
Q 4219 3659 3833 3768 
Q 3447 3878 3059 3878 
Q 2341 3878 1952 3476 
Q 1563 3075 1563 2328 
Q 1563 1588 1938 1184 
Q 2313 781 3003 781 
Q 3191 781 3352 804 
Q 3513 828 3641 878 
L 3641 1784 
L 2906 1784 
L 2906 2591 
L 4781 2591 
L 4781 347 
z
" transform="scale(0.015625)"/>
     </defs>
     <use xlink:href="#DejaVuSans-Bold-52"/>
     <use xlink:href="#DejaVuSans-Bold-65" transform="translate(77.001953 0)"/>
     <use xlink:href="#DejaVuSans-Bold-64" transform="translate(144.824219 0)"/>
     <use xlink:href="#DejaVuSans-Bold-73" transform="translate(216.40625 0)"/>
     <use xlink:href="#DejaVuSans-Bold-68" transform="translate(275.927734 0)"/>
     <use xlink:href="#DejaVuSans-Bold-69" transform="translate(347.119141 0)"/>
     <use xlink:href="#DejaVuSans-Bold-66" transform="translate(381.396484 0)"/>
     <use xlink:href="#DejaVuSans-Bold-74" transform="translate(424.902344 0)"/>
     <use xlink:href="#DejaVuSans-Bold-20" transform="translate(472.705078 0)"/>
     <use xlink:href="#DejaVuSans-Bold-47" transform="translate(507.519531 0)"/>
     <use xlink:href="#DejaVuSans-Bold-72" transform="translate(589.599609 0)"/>
     <use xlink:href="#DejaVuSans-Bold-69" transform="translate(638.916016 0)"/>
     <use xlink:href="#DejaVuSans-Bold-64" transform="translate(673.193359 0)"/>
    </g>
   </g>
   <g id="text_7">
    <!-- z_grid = linspace(z0, z0+Δz) -->
    <g style="fill: #333333" transform="translate(73.548 343.254844) scale(0.13 -0.13)">
     <defs>
      <path id="DejaVuSans-5f" d="M 3263 -1063 
L 3263 -1509 
L -63 -1509 
L -63 -1063 
L 3263 -1063 
z
" transform="scale(0.015625)"/>
      <path id="DejaVuSans-67" d="M 2906 1791 
Q 2906 2416 2648 2759 
Q 2391 3103 1925 3103 
Q 1463 3103 1205 2759 
Q 947 2416 947 1791 
Q 947 1169 1205 825 
Q 1463 481 1925 481 
Q 2391 481 2648 825 
Q 2906 1169 2906 1791 
z
M 3481 434 
Q 3481 -459 3084 -895 
Q 2688 -1331 1869 -1331 
Q 1566 -1331 1297 -1286 
Q 1028 -1241 775 -1147 
L 775 -588 
Q 1028 -725 1275 -790 
Q 1522 -856 1778 -856 
Q 2344 -856 2625 -561 
Q 2906 -266 2906 331 
L 2906 616 
Q 2728 306 2450 153 
Q 2172 0 1784 0 
Q 1141 0 747 490 
Q 353 981 353 1791 
Q 353 2603 747 3093 
Q 1141 3584 1784 3584 
Q 2172 3584 2450 3431 
Q 2728 3278 2906 2969 
L 2906 3500 
L 3481 3500 
L 3481 434 
z
" transform="scale(0.015625)"/>
      <path id="DejaVuSans-69" d="M 603 3500 
L 1178 3500 
L 1178 0 
L 603 0 
L 603 3500 
z
M 603 4863 
L 1178 4863 
L 1178 4134 
L 603 4134 
L 603 4863 
z
" transform="scale(0.015625)"/>
      <path id="DejaVuSans-3d" d="M 678 2906 
L 4684 2906 
L 4684 2381 
L 678 2381 
L 678 2906 
z
M 678 1631 
L 4684 1631 
L 4684 1100 
L 678 1100 
L 678 1631 
z
" transform="scale(0.015625)"/>
      <path id="DejaVuSans-28" d="M 1984 4856 
Q 1566 4138 1362 3434 
Q 1159 2731 1159 2009 
Q 1159 1288 1364 580 
Q 1569 -128 1984 -844 
L 1484 -844 
Q 1016 -109 783 600 
Q 550 1309 550 2009 
Q 550 2706 781 3412 
Q 1013 4119 1484 4856 
L 1984 4856 
z
" transform="scale(0.015625)"/>
      <path id="DejaVuSans-394" d="M 2188 4044 
L 906 525 
L 3472 525 
L 2188 4044 
z
M 50 0 
L 1831 4666 
L 2547 4666 
L 4325 0 
L 50 0 
z
" transform="scale(0.015625)"/>
      <path id="DejaVuSans-29" d="M 513 4856 
L 1013 4856 
Q 1481 4119 1714 3412 
Q 1947 2706 1947 2009 
Q 1947 1309 1714 600 
Q 1481 -109 1013 -844 
L 513 -844 
Q 928 -128 1133 580 
Q 1338 1288 1338 2009 
Q 1338 2731 1133 3434 
Q 928 4138 513 4856 
z
" transform="scale(0.015625)"/>
     </defs>
     <use xlink:href="#DejaVuSans-7a"/>
     <use xlink:href="#DejaVuSans-5f" transform="translate(52.490234 0)"/>
     <use xlink:href="#DejaVuSans-67" transform="translate(102.490234 0)"/>
     <use xlink:href="#DejaVuSans-72" transform="translate(165.966797 0)"/>
     <use xlink:href="#DejaVuSans-69" transform="translate(207.080078 0)"/>
     <use xlink:href="#DejaVuSans-64" transform="translate(234.863281 0)"/>
     <use xlink:href="#DejaVuSans-20" transform="translate(298.339844 0)"/>
     <use xlink:href="#DejaVuSans-3d" transform="translate(330.126953 0)"/>
     <use xlink:href="#DejaVuSans-20" transform="translate(413.916016 0)"/>
     <use xlink:href="#DejaVuSans-6c" transform="translate(445.703125 0)"/>
     <use xlink:href="#DejaVuSans-69" transform="translate(473.486328 0)"/>
     <use xlink:href="#DejaVuSans-6e" transform="translate(501.269531 0)"/>
     <use xlink:href="#DejaVuSans-73" transform="translate(564.648438 0)"/>
     <use xlink:href="#DejaVuSans-70" transform="translate(616.748047 0)"/>
     <use xlink:href="#DejaVuSans-61" transform="translate(680.224609 0)"/>
     <use xlink:href="#DejaVuSans-63" transform="translate(741.503906 0)"/>
     <use xlink:href="#DejaVuSans-65" transform="translate(796.484375 0)"/>
     <use xlink:href="#DejaVuSans-28" transform="translate(858.007812 0)"/>
     <use xlink:href="#DejaVuSans-7a" transform="translate(897.021484 0)"/>
     <use xlink:href="#DejaVuSans-30" transform="translate(949.511719 0)"/>
     <use xlink:href="#DejaVuSans-2c" transform="translate(1013.134766 0)"/>
     <use xlink:href="#DejaVuSans-20" transform="translate(1044.921875 0)"/>
     <use xlink:href="#DejaVuSans-7a" transform="translate(1076.708984 0)"/>
     <use xlink:href="#DejaVuSans-30" transform="translate(1129.199219 0)"/>
     <use xlink:href="#DejaVuSans-2b" transform="translate(1192.822266 0)"/>
     <use xlink:href="#DejaVuSans-394" transform="translate(1276.611328 0)"/>
     <use xlink:href="#DejaVuSans-7a" transform="translate(1345.019531 0)"/>
     <use xlink:href="#DejaVuSans-29" transform="translate(1397.509766 0)"/>
    </g>
   </g>
   <g id="patch_12">
    <path d="M 356.4 370.92883 
Q 356.4 380.232494 356.4 387.300091 
" style="fill: none; stroke: #00838f; stroke-width: 2; stroke-linecap: round"/>
    <path d="M 358.4 383.300091 
L 356.4 387.300091 
L 354.4 383.300091 
" style="fill: none; stroke: #00838f; stroke-width: 2; stroke-linecap: round"/>
   </g>
   <g id="text_8">
    <!-- Norm Scaling -->
    <g style="fill: #006064" transform="translate(73.548 426.3015) scale(0.16 -0.16)">
     <defs>
      <path id="DejaVuSans-Bold-4e" d="M 588 4666 
L 1931 4666 
L 3628 1466 
L 3628 4666 
L 4769 4666 
L 4769 0 
L 3425 0 
L 1728 3200 
L 1728 0 
L 588 0 
L 588 4666 
z
" transform="scale(0.015625)"/>
      <path id="DejaVuSans-Bold-6d" d="M 3781 2919 
Q 3994 3244 4286 3414 
Q 4578 3584 4928 3584 
Q 5531 3584 5847 3212 
Q 6163 2841 6163 2131 
L 6163 0 
L 5038 0 
L 5038 1825 
Q 5041 1866 5042 1909 
Q 5044 1953 5044 2034 
Q 5044 2406 4934 2573 
Q 4825 2741 4581 2741 
Q 4263 2741 4089 2478 
Q 3916 2216 3909 1719 
L 3909 0 
L 2784 0 
L 2784 1825 
Q 2784 2406 2684 2573 
Q 2584 2741 2328 2741 
Q 2006 2741 1831 2477 
Q 1656 2213 1656 1722 
L 1656 0 
L 531 0 
L 531 3500 
L 1656 3500 
L 1656 2988 
Q 1863 3284 2130 3434 
Q 2397 3584 2719 3584 
Q 3081 3584 3359 3409 
Q 3638 3234 3781 2919 
z
" transform="scale(0.015625)"/>
      <path id="DejaVuSans-Bold-53" d="M 3834 4519 
L 3834 3531 
Q 3450 3703 3084 3790 
Q 2719 3878 2394 3878 
Q 1963 3878 1756 3759 
Q 1550 3641 1550 3391 
Q 1550 3203 1689 3098 
Q 1828 2994 2194 2919 
L 2706 2816 
Q 3484 2659 3812 2340 
Q 4141 2022 4141 1434 
Q 4141 663 3683 286 
Q 3225 -91 2284 -91 
Q 1841 -91 1394 -6 
Q 947 78 500 244 
L 500 1259 
Q 947 1022 1364 901 
Q 1781 781 2169 781 
Q 2563 781 2772 912 
Q 2981 1044 2981 1288 
Q 2981 1506 2839 1625 
Q 2697 1744 2272 1838 
L 1806 1941 
Q 1106 2091 782 2419 
Q 459 2747 459 3303 
Q 459 4000 909 4375 
Q 1359 4750 2203 4750 
Q 2588 4750 2994 4692 
Q 3400 4634 3834 4519 
z
" transform="scale(0.015625)"/>
      <path id="DejaVuSans-Bold-63" d="M 3366 3391 
L 3366 2478 
Q 3138 2634 2908 2709 
Q 2678 2784 2431 2784 
Q 1963 2784 1702 2511 
Q 1441 2238 1441 1747 
Q 1441 1256 1702 982 
Q 1963 709 2431 709 
Q 2694 709 2930 787 
Q 3166 866 3366 1019 
L 3366 103 
Q 3103 6 2833 -42 
Q 2563 -91 2291 -91 
Q 1344 -91 809 395 
Q 275 881 275 1747 
Q 275 2613 809 3098 
Q 1344 3584 2291 3584 
Q 2566 3584 2833 3536 
Q 3100 3488 3366 3391 
z
" transform="scale(0.015625)"/>
      <path id="DejaVuSans-Bold-67" d="M 2919 594 
Q 2688 288 2409 144 
Q 2131 0 1766 0 
Q 1125 0 706 504 
Q 288 1009 288 1791 
Q 288 2575 706 3076 
Q 1125 3578 1766 3578 
Q 2131 3578 2409 3434 
Q 2688 3291 2919 2981 
L 2919 3500 
L 4044 3500 
L 4044 353 
Q 4044 -491 3511 -936 
Q 2978 -1381 1966 -1381 
Q 1638 -1381 1331 -1331 
Q 1025 -1281 716 -1178 
L 716 -306 
Q 1009 -475 1290 -558 
Q 1572 -641 1856 -641 
Q 2406 -641 2662 -400 
Q 2919 -159 2919 353 
L 2919 594 
z
M 2181 2772 
Q 1834 2772 1640 2515 
Q 1447 2259 1447 1791 
Q 1447 1309 1634 1061 
Q 1822 813 2181 813 
Q 2531 813 2725 1069 
Q 2919 1325 2919 1791 
Q 2919 2259 2725 2515 
Q 2531 2772 2181 2772 
z
" transform="scale(0.015625)"/>
     </defs>
     <use xlink:href="#DejaVuSans-Bold-4e"/>
     <use xlink:href="#DejaVuSans-Bold-6f" transform="translate(83.691406 0)"/>
     <use xlink:href="#DejaVuSans-Bold-72" transform="translate(152.392578 0)"/>
     <use xlink:href="#DejaVuSans-Bold-6d" transform="translate(201.708984 0)"/>
     <use xlink:href="#DejaVuSans-Bold-20" transform="translate(305.908203 0)"/>
     <use xlink:href="#DejaVuSans-Bold-53" transform="translate(340.722656 0)"/>
     <use xlink:href="#DejaVuSans-Bold-63" transform="translate(412.744141 0)"/>
     <use xlink:href="#DejaVuSans-Bold-61" transform="translate(472.021484 0)"/>
     <use xlink:href="#DejaVuSans-Bold-6c" transform="translate(539.501953 0)"/>
     <use xlink:href="#DejaVuSans-Bold-69" transform="translate(573.779297 0)"/>
     <use xlink:href="#DejaVuSans-Bold-6e" transform="translate(608.056641 0)"/>
     <use xlink:href="#DejaVuSans-Bold-67" transform="translate(679.248047 0)"/>
    </g>
   </g>
   <g id="text_9">
    <!-- norm_new = norm0 × ((1+z0)/(1+z))^α -->
    <g style="fill: #333333" transform="translate(73.548 452.680125) scale(0.13 -0.13)">
     <defs>
      <path id="DejaVuSans-77" d="M 269 3500 
L 844 3500 
L 1563 769 
L 2278 3500 
L 2956 3500 
L 3675 769 
L 4391 3500 
L 4966 3500 
L 4050 0 
L 3372 0 
L 2619 2869 
L 1863 0 
L 1184 0 
L 269 3500 
z
" transform="scale(0.015625)"/>
      <path id="DejaVuSans-d7" d="M 4488 3438 
L 3059 2003 
L 4488 575 
L 4116 197 
L 2681 1631 
L 1247 197 
L 878 575 
L 2303 2003 
L 878 3438 
L 1247 3816 
L 2681 2381 
L 4116 3816 
L 4488 3438 
z
" transform="scale(0.015625)"/>
      <path id="DejaVuSans-31" d="M 794 531 
L 1825 531 
L 1825 4091 
L 703 3866 
L 703 4441 
L 1819 4666 
L 2450 4666 
L 2450 531 
L 3481 531 
L 3481 0 
L 794 0 
L 794 531 
z
" transform="scale(0.015625)"/>
      <path id="DejaVuSans-2f" d="M 1625 4666 
L 2156 4666 
L 531 -594 
L 0 -594 
L 1625 4666 
z
" transform="scale(0.015625)"/>
      <path id="DejaVuSans-5e" d="M 2988 4666 
L 4684 2925 
L 4056 2925 
L 2681 4159 
L 1306 2925 
L 678 2925 
L 2375 4666 
L 2988 4666 
z
" transform="scale(0.015625)"/>
      <path id="DejaVuSans-3b1" d="M 2644 1628 
L 2506 2350 
Q 2366 3091 1809 3091 
Q 1391 3091 1200 2747 
Q 959 2316 959 1747 
Q 959 1059 1194 731 
Q 1431 397 1809 397 
Q 2228 397 2453 1063 
L 2644 1628 
z
M 2966 2584 
L 3275 3500 
L 3788 3500 
L 3147 1603 
L 3272 919 
Q 3300 766 3409 638 
Q 3538 488 3638 488 
L 3913 488 
L 3913 0 
L 3569 0 
Q 3275 0 3013 263 
Q 2884 394 2831 669 
Q 2688 322 2394 50 
Q 2256 -78 1809 -78 
Q 1075 -78 719 397 
Q 353 888 353 1747 
Q 353 2666 750 3097 
Q 1191 3578 1809 3578 
Q 2781 3578 2966 2584 
z
" transform="scale(0.015625)"/>
     </defs>
     <use xlink:href="#DejaVuSans-6e"/>
     <use xlink:href="#DejaVuSans-6f" transform="translate(63.378906 0)"/>
     <use xlink:href="#DejaVuSans-72" transform="translate(124.560547 0)"/>
     <use xlink:href="#DejaVuSans-6d" transform="translate(163.923828 0)"/>
     <use xlink:href="#DejaVuSans-5f" transform="translate(261.335938 0)"/>
     <use xlink:href="#DejaVuSans-6e" transform="translate(311.335938 0)"/>
     <use xlink:href="#DejaVuSans-65" transform="translate(374.714844 0)"/>
     <use xlink:href="#DejaVuSans-77" transform="translate(436.238281 0)"/>
     <use xlink:href="#DejaVuSans-20" transform="translate(518.025391 0)"/>
     <use xlink:href="#DejaVuSans-3d" transform="translate(549.8125 0)"/>
     <use xlink:href="#DejaVuSans-20" transform="translate(633.601562 0)"/>
     <use xlink:href="#DejaVuSans-6e" transform="translate(665.388672 0)"/>
     <use xlink:href="#DejaVuSans-6f" transform="translate(728.767578 0)"/>
     <use xlink:href="#DejaVuSans-72" transform="translate(789.949219 0)"/>
     <use xlink:href="#DejaVuSans-6d" transform="translate(829.3125 0)"/>
     <use xlink:href="#DejaVuSans-30" transform="translate(926.724609 0)"/>
     <use xlink:href="#DejaVuSans-20" transform="translate(990.347656 0)"/>
     <use xlink:href="#DejaVuSans-d7" transform="translate(1022.134766 0)"/>
     <use xlink:href="#DejaVuSans-20" transform="translate(1105.923828 0)"/>
     <use xlink:href="#DejaVuSans-28" transform="translate(1137.710938 0)"/>
     <use xlink:href="#DejaVuSans-28" transform="translate(1176.724609 0)"/>
     <use xlink:href="#DejaVuSans-31" transform="translate(1215.738281 0)"/>
     <use xlink:href="#DejaVuSans-2b" transform="translate(1279.361328 0)"/>
     <use xlink:href="#DejaVuSans-7a" transform="translate(1363.150391 0)"/>
     <use xlink:href="#DejaVuSans-30" transform="translate(1415.640625 0)"/>
     <use xlink:href="#DejaVuSans-29" transform="translate(1479.263672 0)"/>
     <use xlink:href="#DejaVuSans-2f" transform="translate(1518.277344 0)"/>
     <use xlink:href="#DejaVuSans-28" transform="translate(1551.96875 0)"/>
     <use xlink:href="#DejaVuSans-31" transform="translate(1590.982422 0)"/>
     <use xlink:href="#DejaVuSans-2b" transform="translate(1654.605469 0)"/>
     <use xlink:href="#DejaVuSans-7a" transform="translate(1738.394531 0)"/>
     <use xlink:href="#DejaVuSans-29" transform="translate(1790.884766 0)"/>
     <use xlink:href="#DejaVuSans-29" transform="translate(1829.898438 0)"/>
     <use xlink:href="#DejaVuSans-5e" transform="translate(1868.912109 0)"/>
     <use xlink:href="#DejaVuSans-3b1" transform="translate(1952.701172 0)"/>
    </g>
    <!-- × (r_c²(z0)/r_c²(z)) -->
    <g style="fill: #333333" transform="translate(73.548 467.598844) scale(0.13 -0.13)">
     <defs>
      <path id="DejaVuSans-b2" d="M 838 2444 
L 2163 2444 
L 2163 2088 
L 294 2088 
L 294 2431 
Q 400 2528 597 2703 
Q 1672 3656 1672 3950 
Q 1672 4156 1509 4282 
Q 1347 4409 1081 4409 
Q 919 4409 728 4354 
Q 538 4300 313 4191 
L 313 4575 
Q 553 4663 761 4706 
Q 969 4750 1147 4750 
Q 1600 4750 1872 4544 
Q 2144 4338 2144 4000 
Q 2144 3566 1109 2678 
Q 934 2528 838 2444 
z
" transform="scale(0.015625)"/>
     </defs>
     <use xlink:href="#DejaVuSans-d7"/>
     <use xlink:href="#DejaVuSans-20" transform="translate(83.789062 0)"/>
     <use xlink:href="#DejaVuSans-28" transform="translate(115.576172 0)"/>
     <use xlink:href="#DejaVuSans-72" transform="translate(154.589844 0)"/>
     <use xlink:href="#DejaVuSans-5f" transform="translate(195.703125 0)"/>
     <use xlink:href="#DejaVuSans-63" transform="translate(245.703125 0)"/>
     <use xlink:href="#DejaVuSans-b2" transform="translate(300.683594 0)"/>
     <use xlink:href="#DejaVuSans-28" transform="translate(340.771484 0)"/>
     <use xlink:href="#DejaVuSans-7a" transform="translate(379.785156 0)"/>
     <use xlink:href="#DejaVuSans-30" transform="translate(432.275391 0)"/>
     <use xlink:href="#DejaVuSans-29" transform="translate(495.898438 0)"/>
     <use xlink:href="#DejaVuSans-2f" transform="translate(534.912109 0)"/>
     <use xlink:href="#DejaVuSans-72" transform="translate(568.603516 0)"/>
     <use xlink:href="#DejaVuSans-5f" transform="translate(609.716797 0)"/>
     <use xlink:href="#DejaVuSans-63" transform="translate(659.716797 0)"/>
     <use xlink:href="#DejaVuSans-b2" transform="translate(714.697266 0)"/>
     <use xlink:href="#DejaVuSans-28" transform="translate(754.785156 0)"/>
     <use xlink:href="#DejaVuSans-7a" transform="translate(793.798828 0)"/>
     <use xlink:href="#DejaVuSans-29" transform="translate(846.289062 0)"/>
     <use xlink:href="#DejaVuSans-29" transform="translate(885.302734 0)"/>
    </g>
   </g>
   <g id="patch_13">
    <path d="M 356.4 495.27283 
Q 356.4 504.576494 356.4 511.644091 
" style="fill: none; stroke: #00838f; stroke-width: 2; stroke-linecap: round"/>
    <path d="M 358.4 507.644091 
L 356.4 511.644091 
L 354.4 507.644091 
" style="fill: none; stroke: #00838f; stroke-width: 2; stroke-linecap: round"/>
   </g>
   <g id="text_10">
    <!-- Convolution -->
    <g style="fill: #006064" transform="translate(73.548 550.6455) scale(0.16 -0.16)">
     <defs>
      <path id="DejaVuSans-Bold-43" d="M 4288 256 
Q 3956 84 3597 -3 
Q 3238 -91 2847 -91 
Q 1681 -91 1000 561 
Q 319 1213 319 2328 
Q 319 3447 1000 4098 
Q 1681 4750 2847 4750 
Q 3238 4750 3597 4662 
Q 3956 4575 4288 4403 
L 4288 3438 
Q 3953 3666 3628 3772 
Q 3303 3878 2944 3878 
Q 2300 3878 1931 3465 
Q 1563 3053 1563 2328 
Q 1563 1606 1931 1193 
Q 2300 781 2944 781 
Q 3303 781 3628 887 
Q 3953 994 4288 1222 
L 4288 256 
z
" transform="scale(0.015625)"/>
      <path id="DejaVuSans-Bold-76" d="M 97 3500 
L 1216 3500 
L 2088 1081 
L 2956 3500 
L 4078 3500 
L 2700 0 
L 1472 0 
L 97 3500 
z
" transform="scale(0.015625)"/>
     </defs>
     <use xlink:href="#DejaVuSans-Bold-43"/>
     <use xlink:href="#DejaVuSans-Bold-6f" transform="translate(73.388672 0)"/>
     <use xlink:href="#DejaVuSans-Bold-6e" transform="translate(142.089844 0)"/>
     <use xlink:href="#DejaVuSans-Bold-76" transform="translate(213.28125 0)"/>
     <use xlink:href="#DejaVuSans-Bold-6f" transform="translate(278.466797 0)"/>
     <use xlink:href="#DejaVuSans-Bold-6c" transform="translate(347.167969 0)"/>
     <use xlink:href="#DejaVuSans-Bold-75" transform="translate(381.445312 0)"/>
     <use xlink:href="#DejaVuSans-Bold-74" transform="translate(452.636719 0)"/>
     <use xlink:href="#DejaVuSans-Bold-69" transform="translate(500.439453 0)"/>
     <use xlink:href="#DejaVuSans-Bold-6f" transform="translate(534.716797 0)"/>
     <use xlink:href="#DejaVuSans-Bold-6e" transform="translate(603.417969 0)"/>
    </g>
   </g>
   <g id="text_11">
    <!-- SOXS: model→spectrum→RSP conv→count rate -->
    <g style="fill: #333333" transform="translate(73.548 592.304406) scale(0.13 -0.13)">
     <defs>
      <path id="DejaVuSans-4f" d="M 2522 4238 
Q 1834 4238 1429 3725 
Q 1025 3213 1025 2328 
Q 1025 1447 1429 934 
Q 1834 422 2522 422 
Q 3209 422 3611 934 
Q 4013 1447 4013 2328 
Q 4013 3213 3611 3725 
Q 3209 4238 2522 4238 
z
M 2522 4750 
Q 3503 4750 4090 4092 
Q 4678 3434 4678 2328 
Q 4678 1225 4090 567 
Q 3503 -91 2522 -91 
Q 1538 -91 948 565 
Q 359 1222 359 2328 
Q 359 3434 948 4092 
Q 1538 4750 2522 4750 
z
" transform="scale(0.015625)"/>
      <path id="DejaVuSans-3a" d="M 750 794 
L 1409 794 
L 1409 0 
L 750 0 
L 750 794 
z
M 750 3309 
L 1409 3309 
L 1409 2516 
L 750 2516 
L 750 3309 
z
" transform="scale(0.015625)"/>
      <path id="DejaVuSans-2192" d="M 5050 2147 
L 5050 1866 
L 3822 638 
L 3447 1013 
L 4175 1741 
L 366 1741 
L 366 2272 
L 4175 2272 
L 3447 3000 
L 3822 3375 
L 5050 2147 
z
" transform="scale(0.015625)"/>
      <path id="DejaVuSans-76" d="M 191 3500 
L 800 3500 
L 1894 563 
L 2988 3500 
L 3597 3500 
L 2284 0 
L 1503 0 
L 191 3500 
z
" transform="scale(0.015625)"/>
     </defs>
     <use xlink:href="#DejaVuSans-53"/>
     <use xlink:href="#DejaVuSans-4f" transform="translate(63.476562 0)"/>
     <use xlink:href="#DejaVuSans-58" transform="translate(135.8125 0)"/>
     <use xlink:href="#DejaVuSans-53" transform="translate(204.318359 0)"/>
     <use xlink:href="#DejaVuSans-3a" transform="translate(267.794922 0)"/>
     <use xlink:href="#DejaVuSans-20" transform="translate(301.486328 0)"/>
     <use xlink:href="#DejaVuSans-6d" transform="translate(333.273438 0)"/>
     <use xlink:href="#DejaVuSans-6f" transform="translate(430.685547 0)"/>
     <use xlink:href="#DejaVuSans-64" transform="translate(491.867188 0)"/>
     <use xlink:href="#DejaVuSans-65" transform="translate(555.34375 0)"/>
     <use xlink:href="#DejaVuSans-6c" transform="translate(616.867188 0)"/>
     <use xlink:href="#DejaVuSans-2192" transform="translate(644.650391 0)"/>
     <use xlink:href="#DejaVuSans-73" transform="translate(728.439453 0)"/>
     <use xlink:href="#DejaVuSans-70" transform="translate(780.539062 0)"/>
     <use xlink:href="#DejaVuSans-65" transform="translate(844.015625 0)"/>
     <use xlink:href="#DejaVuSans-63" transform="translate(905.539062 0)"/>
     <use xlink:href="#DejaVuSans-74" transform="translate(960.519531 0)"/>
     <use xlink:href="#DejaVuSans-72" transform="translate(999.728516 0)"/>
     <use xlink:href="#DejaVuSans-75" transform="translate(1040.841797 0)"/>
     <use xlink:href="#DejaVuSans-6d" transform="translate(1104.220703 0)"/>
     <use xlink:href="#DejaVuSans-2192" transform="translate(1201.632812 0)"/>
     <use xlink:href="#DejaVuSans-52" transform="translate(1285.421875 0)"/>
     <use xlink:href="#DejaVuSans-53" transform="translate(1354.904297 0)"/>
     <use xlink:href="#DejaVuSans-50" transform="translate(1418.380859 0)"/>
     <use xlink:href="#DejaVuSans-20" transform="translate(1478.683594 0)"/>
     <use xlink:href="#DejaVuSans-63" transform="translate(1510.470703 0)"/>
     <use xlink:href="#DejaVuSans-6f" transform="translate(1565.451172 0)"/>
     <use xlink:href="#DejaVuSans-6e" transform="translate(1626.632812 0)"/>
     <use xlink:href="#DejaVuSans-76" transform="translate(1690.011719 0)"/>
     <use xlink:href="#DejaVuSans-2192" transform="translate(1749.191406 0)"/>
     <use xlink:href="#DejaVuSans-63" transform="translate(1832.980469 0)"/>
     <use xlink:href="#DejaVuSans-6f" transform="translate(1887.960938 0)"/>
     <use xlink:href="#DejaVuSans-75" transform="translate(1949.142578 0)"/>
     <use xlink:href="#DejaVuSans-6e" transform="translate(2012.521484 0)"/>
     <use xlink:href="#DejaVuSans-74" transform="translate(2075.900391 0)"/>
     <use xlink:href="#DejaVuSans-20" transform="translate(2115.109375 0)"/>
     <use xlink:href="#DejaVuSans-72" transform="translate(2146.896484 0)"/>
     <use xlink:href="#DejaVuSans-61" transform="translate(2188.009766 0)"/>
     <use xlink:href="#DejaVuSans-74" transform="translate(2249.289062 0)"/>
     <use xlink:href="#DejaVuSans-65" transform="translate(2288.498047 0)"/>
    </g>
   </g>
   <g id="patch_14">
    <path d="M 356.4 619.61683 
Q 356.4 628.920494 356.4 635.988091 
" style="fill: none; stroke: #00838f; stroke-width: 2; stroke-linecap: round"/>
    <path d="M 358.4 631.988091 
L 356.4 635.988091 
L 354.4 631.988091 
" style="fill: none; stroke: #00838f; stroke-width: 2; stroke-linecap: round"/>
   </g>
   <g id="text_12">
    <!-- SNR Compute -->
    <g style="fill: #006064" transform="translate(73.548 674.9895) scale(0.16 -0.16)">
     <use xlink:href="#DejaVuSans-Bold-53"/>
     <use xlink:href="#DejaVuSans-Bold-4e" transform="translate(72.021484 0)"/>
     <use xlink:href="#DejaVuSans-Bold-52" transform="translate(155.712891 0)"/>
     <use xlink:href="#DejaVuSans-Bold-20" transform="translate(232.714844 0)"/>
     <use xlink:href="#DejaVuSans-Bold-43" transform="translate(267.529297 0)"/>
     <use xlink:href="#DejaVuSans-Bold-6f" transform="translate(340.917969 0)"/>
     <use xlink:href="#DejaVuSans-Bold-6d" transform="translate(409.619141 0)"/>
     <use xlink:href="#DejaVuSans-Bold-70" transform="translate(513.818359 0)"/>
     <use xlink:href="#DejaVuSans-Bold-75" transform="translate(585.400391 0)"/>
     <use xlink:href="#DejaVuSans-Bold-74" transform="translate(656.591797 0)"/>
     <use xlink:href="#DejaVuSans-Bold-65" transform="translate(704.394531 0)"/>
    </g>
   </g>
   <g id="text_13">
    <!-- Li &amp; Ma: SNR = sqrt{...} -->
    <g style="fill: #333333" transform="translate(73.548 716.648406) scale(0.13 -0.13)">
     <defs>
      <path id="DejaVuSans-4c" d="M 628 4666 
L 1259 4666 
L 1259 531 
L 3531 531 
L 3531 0 
L 628 0 
L 628 4666 
z
" transform="scale(0.015625)"/>
      <path id="DejaVuSans-26" d="M 1556 2509 
Q 1272 2256 1139 2004 
Q 1006 1753 1006 1478 
Q 1006 1022 1337 719 
Q 1669 416 2169 416 
Q 2466 416 2725 514 
Q 2984 613 3213 813 
L 1556 2509 
z
M 1997 2859 
L 3584 1234 
Q 3769 1513 3872 1830 
Q 3975 2147 3994 2503 
L 4575 2503 
Q 4538 2091 4375 1687 
Q 4213 1284 3922 891 
L 4794 0 
L 4006 0 
L 3559 459 
Q 3234 181 2878 45 
Q 2522 -91 2113 -91 
Q 1359 -91 881 339 
Q 403 769 403 1441 
Q 403 1841 612 2192 
Q 822 2544 1241 2853 
Q 1091 3050 1012 3245 
Q 934 3441 934 3628 
Q 934 4134 1281 4442 
Q 1628 4750 2203 4750 
Q 2463 4750 2720 4694 
Q 2978 4638 3244 4525 
L 3244 3956 
Q 2972 4103 2725 4179 
Q 2478 4256 2266 4256 
Q 1938 4256 1733 4082 
Q 1528 3909 1528 3634 
Q 1528 3475 1620 3314 
Q 1713 3153 1997 2859 
z
" transform="scale(0.015625)"/>
      <path id="DejaVuSans-4e" d="M 628 4666 
L 1478 4666 
L 3547 763 
L 3547 4666 
L 4159 4666 
L 4159 0 
L 3309 0 
L 1241 3903 
L 1241 0 
L 628 0 
L 628 4666 
z
" transform="scale(0.015625)"/>
      <path id="DejaVuSans-71" d="M 947 1747 
Q 947 1113 1208 752 
Q 1469 391 1925 391 
Q 2381 391 2643 752 
Q 2906 1113 2906 1747 
Q 2906 2381 2643 2742 
Q 2381 3103 1925 3103 
Q 1469 3103 1208 2742 
Q 947 2381 947 1747 
z
M 2906 525 
Q 2725 213 2448 61 
Q 2172 -91 1784 -91 
Q 1150 -91 751 415 
Q 353 922 353 1747 
Q 353 2572 751 3078 
Q 1150 3584 1784 3584 
Q 2172 3584 2448 3432 
Q 2725 3281 2906 2969 
L 2906 3500 
L 3481 3500 
L 3481 -1331 
L 2906 -1331 
L 2906 525 
z
" transform="scale(0.015625)"/>
      <path id="DejaVuSans-7b" d="M 3272 -594 
L 3272 -1044 
L 3078 -1044 
Q 2300 -1044 2036 -812 
Q 1772 -581 1772 109 
L 1772 856 
Q 1772 1328 1603 1509 
Q 1434 1691 991 1691 
L 800 1691 
L 800 2138 
L 991 2138 
Q 1438 2138 1605 2317 
Q 1772 2497 1772 2963 
L 1772 3713 
Q 1772 4403 2036 4633 
Q 2300 4863 3078 4863 
L 3272 4863 
L 3272 4416 
L 3059 4416 
Q 2619 4416 2484 4278 
Q 2350 4141 2350 3700 
L 2350 2925 
Q 2350 2434 2208 2212 
Q 2066 1991 1722 1913 
Q 2069 1828 2209 1606 
Q 2350 1384 2350 897 
L 2350 122 
Q 2350 -319 2484 -456 
Q 2619 -594 3059 -594 
L 3272 -594 
z
" transform="scale(0.015625)"/>
      <path id="DejaVuSans-2e" d="M 684 794 
L 1344 794 
L 1344 0 
L 684 0 
L 684 794 
z
" transform="scale(0.015625)"/>
      <path id="DejaVuSans-7d" d="M 800 -594 
L 1019 -594 
Q 1456 -594 1589 -459 
Q 1722 -325 1722 122 
L 1722 897 
Q 1722 1384 1862 1606 
Q 2003 1828 2350 1913 
Q 2003 1991 1862 2212 
Q 1722 2434 1722 2925 
L 1722 3700 
Q 1722 4144 1589 4280 
Q 1456 4416 1019 4416 
L 800 4416 
L 800 4863 
L 997 4863 
Q 1775 4863 2036 4633 
Q 2297 4403 2297 3713 
L 2297 2963 
Q 2297 2497 2465 2317 
Q 2634 2138 3078 2138 
L 3272 2138 
L 3272 1691 
L 3078 1691 
Q 2634 1691 2465 1509 
Q 2297 1328 2297 856 
L 2297 109 
Q 2297 -581 2036 -812 
Q 1775 -1044 997 -1044 
L 800 -1044 
L 800 -594 
z
" transform="scale(0.015625)"/>
     </defs>
     <use xlink:href="#DejaVuSans-4c"/>
     <use xlink:href="#DejaVuSans-69" transform="translate(55.712891 0)"/>
     <use xlink:href="#DejaVuSans-20" transform="translate(83.496094 0)"/>
     <use xlink:href="#DejaVuSans-26" transform="translate(115.283203 0)"/>
     <use xlink:href="#DejaVuSans-20" transform="translate(193.261719 0)"/>
     <use xlink:href="#DejaVuSans-4d" transform="translate(225.048828 0)"/>
     <use xlink:href="#DejaVuSans-61" transform="translate(311.328125 0)"/>
     <use xlink:href="#DejaVuSans-3a" transform="translate(372.607422 0)"/>
     <use xlink:href="#DejaVuSans-20" transform="translate(406.298828 0)"/>
     <use xlink:href="#DejaVuSans-53" transform="translate(438.085938 0)"/>
     <use xlink:href="#DejaVuSans-4e" transform="translate(501.5625 0)"/>
     <use xlink:href="#DejaVuSans-52" transform="translate(576.367188 0)"/>
     <use xlink:href="#DejaVuSans-20" transform="translate(645.849609 0)"/>
     <use xlink:href="#DejaVuSans-3d" transform="translate(677.636719 0)"/>
     <use xlink:href="#DejaVuSans-20" transform="translate(761.425781 0)"/>
     <use xlink:href="#DejaVuSans-73" transform="translate(793.212891 0)"/>
     <use xlink:href="#DejaVuSans-71" transform="translate(845.3125 0)"/>
     <use xlink:href="#DejaVuSans-72" transform="translate(908.789062 0)"/>
     <use xlink:href="#DejaVuSans-74" transform="translate(949.902344 0)"/>
     <use xlink:href="#DejaVuSans-7b" transform="translate(989.111328 0)"/>
     <use xlink:href="#DejaVuSans-2e" transform="translate(1052.734375 0)"/>
     <use xlink:href="#DejaVuSans-2e" transform="translate(1084.521484 0)"/>
     <use xlink:href="#DejaVuSans-2e" transform="translate(1116.308594 0)"/>
     <use xlink:href="#DejaVuSans-7d" transform="translate(1148.095703 0)"/>
    </g>
   </g>
   <g id="patch_15">
    <path d="M 356.4 743.96083 
Q 356.4 753.264494 356.4 760.332091 
" style="fill: none; stroke: #00838f; stroke-width: 2; stroke-linecap: round"/>
    <path d="M 358.4 756.332091 
L 356.4 760.332091 
L 354.4 756.332091 
" style="fill: none; stroke: #00838f; stroke-width: 2; stroke-linecap: round"/>
   </g>
   <g id="text_14">
    <!-- Adaptive Search -->
    <g style="fill: #006064" transform="translate(73.548 799.3335) scale(0.16 -0.16)">
     <defs>
      <path id="DejaVuSans-Bold-41" d="M 3419 850 
L 1538 850 
L 1241 0 
L 31 0 
L 1759 4666 
L 3194 4666 
L 4922 0 
L 3713 0 
L 3419 850 
z
M 1838 1716 
L 3116 1716 
L 2478 3572 
L 1838 1716 
z
" transform="scale(0.015625)"/>
     </defs>
     <use xlink:href="#DejaVuSans-Bold-41"/>
     <use xlink:href="#DejaVuSans-Bold-64" transform="translate(77.392578 0)"/>
     <use xlink:href="#DejaVuSans-Bold-61" transform="translate(148.974609 0)"/>
     <use xlink:href="#DejaVuSans-Bold-70" transform="translate(216.455078 0)"/>
     <use xlink:href="#DejaVuSans-Bold-74" transform="translate(288.037109 0)"/>
     <use xlink:href="#DejaVuSans-Bold-69" transform="translate(335.839844 0)"/>
     <use xlink:href="#DejaVuSans-Bold-76" transform="translate(370.117188 0)"/>
     <use xlink:href="#DejaVuSans-Bold-65" transform="translate(435.302734 0)"/>
     <use xlink:href="#DejaVuSans-Bold-20" transform="translate(503.125 0)"/>
     <use xlink:href="#DejaVuSans-Bold-53" transform="translate(537.939453 0)"/>
     <use xlink:href="#DejaVuSans-Bold-65" transform="translate(609.960938 0)"/>
     <use xlink:href="#DejaVuSans-Bold-61" transform="translate(677.783203 0)"/>
     <use xlink:href="#DejaVuSans-Bold-72" transform="translate(745.263672 0)"/>
     <use xlink:href="#DejaVuSans-Bold-63" transform="translate(794.580078 0)"/>
     <use xlink:href="#DejaVuSans-Bold-68" transform="translate(853.857422 0)"/>
    </g>
   </g>
   <g id="text_15">
    <!-- Refine z-interval; interpolate SNR→z_max -->
    <g style="fill: #333333" transform="translate(73.548 840.630844) scale(0.13 -0.13)">
     <defs>
      <path id="DejaVuSans-66" d="M 2375 4863 
L 2375 4384 
L 1825 4384 
Q 1516 4384 1395 4259 
Q 1275 4134 1275 3809 
L 1275 3500 
L 2222 3500 
L 2222 3053 
L 1275 3053 
L 1275 0 
L 697 0 
L 697 3053 
L 147 3053 
L 147 3500 
L 697 3500 
L 697 3744 
Q 697 4328 969 4595 
Q 1241 4863 1831 4863 
L 2375 4863 
z
" transform="scale(0.015625)"/>
      <path id="DejaVuSans-2d" d="M 313 2009 
L 1997 2009 
L 1997 1497 
L 313 1497 
L 313 2009 
z
" transform="scale(0.015625)"/>
      <path id="DejaVuSans-3b" d="M 750 3309 
L 1409 3309 
L 1409 2516 
L 750 2516 
L 750 3309 
z
M 750 794 
L 1409 794 
L 1409 256 
L 897 -744 
L 494 -744 
L 750 256 
L 750 794 
z
" transform="scale(0.015625)"/>
     </defs>
     <use xlink:href="#DejaVuSans-52"/>
     <use xlink:href="#DejaVuSans-65" transform="translate(64.982422 0)"/>
     <use xlink:href="#DejaVuSans-66" transform="translate(126.505859 0)"/>
     <use xlink:href="#DejaVuSans-69" transform="translate(161.710938 0)"/>
     <use xlink:href="#DejaVuSans-6e" transform="translate(189.494141 0)"/>
     <use xlink:href="#DejaVuSans-65" transform="translate(252.873047 0)"/>
     <use xlink:href="#DejaVuSans-20" transform="translate(314.396484 0)"/>
     <use xlink:href="#DejaVuSans-7a" transform="translate(346.183594 0)"/>
     <use xlink:href="#DejaVuSans-2d" transform="translate(398.673828 0)"/>
     <use xlink:href="#DejaVuSans-69" transform="translate(434.757812 0)"/>
     <use xlink:href="#DejaVuSans-6e" transform="translate(462.541016 0)"/>
     <use xlink:href="#DejaVuSans-74" transform="translate(525.919922 0)"/>
     <use xlink:href="#DejaVuSans-65" transform="translate(565.128906 0)"/>
     <use xlink:href="#DejaVuSans-72" transform="translate(626.652344 0)"/>
     <use xlink:href="#DejaVuSans-76" transform="translate(667.765625 0)"/>
     <use xlink:href="#DejaVuSans-61" transform="translate(726.945312 0)"/>
     <use xlink:href="#DejaVuSans-6c" transform="translate(788.224609 0)"/>
     <use xlink:href="#DejaVuSans-3b" transform="translate(816.007812 0)"/>
     <use xlink:href="#DejaVuSans-20" transform="translate(849.699219 0)"/>
     <use xlink:href="#DejaVuSans-69" transform="translate(881.486328 0)"/>
     <use xlink:href="#DejaVuSans-6e" transform="translate(909.269531 0)"/>
     <use xlink:href="#DejaVuSans-74" transform="translate(972.648438 0)"/>
     <use xlink:href="#DejaVuSans-65" transform="translate(1011.857422 0)"/>
     <use xlink:href="#DejaVuSans-72" transform="translate(1073.380859 0)"/>
     <use xlink:href="#DejaVuSans-70" transform="translate(1114.494141 0)"/>
     <use xlink:href="#DejaVuSans-6f" transform="translate(1177.970703 0)"/>
     <use xlink:href="#DejaVuSans-6c" transform="translate(1239.152344 0)"/>
     <use xlink:href="#DejaVuSans-61" transform="translate(1266.935547 0)"/>
     <use xlink:href="#DejaVuSans-74" transform="translate(1328.214844 0)"/>
     <use xlink:href="#DejaVuSans-65" transform="translate(1367.423828 0)"/>
     <use xlink:href="#DejaVuSans-20" transform="translate(1428.947266 0)"/>
     <use xlink:href="#DejaVuSans-53" transform="translate(1460.734375 0)"/>
     <use xlink:href="#DejaVuSans-4e" transform="translate(1524.210938 0)"/>
     <use xlink:href="#DejaVuSans-52" transform="translate(1599.015625 0)"/>
     <use xlink:href="#DejaVuSans-2192" transform="translate(1668.498047 0)"/>
     <use xlink:href="#DejaVuSans-7a" transform="translate(1752.287109 0)"/>
     <use xlink:href="#DejaVuSans-5f" transform="translate(1804.777344 0)"/>
     <use xlink:href="#DejaVuSans-6d" transform="translate(1854.777344 0)"/>
     <use xlink:href="#DejaVuSans-61" transform="translate(1952.189453 0)"/>
     <use xlink:href="#DejaVuSans-78" transform="translate(2013.46875 0)"/>
    </g>
   </g>
   <g id="patch_16">
    <path d="M 356.4 868.30483 
Q 356.4 877.608494 356.4 884.676091 
" style="fill: none; stroke: #00838f; stroke-width: 2; stroke-linecap: round"/>
    <path d="M 358.4 880.676091 
L 356.4 884.676091 
L 354.4 880.676091 
" style="fill: none; stroke: #00838f; stroke-width: 2; stroke-linecap: round"/>
   </g>
   <g id="text_16">
    <!-- Outputs -->
    <g style="fill: #006064" transform="translate(73.548 923.6775) scale(0.16 -0.16)">
     <defs>
      <path id="DejaVuSans-Bold-4f" d="M 2719 3878 
Q 2169 3878 1866 3472 
Q 1563 3066 1563 2328 
Q 1563 1594 1866 1187 
Q 2169 781 2719 781 
Q 3272 781 3575 1187 
Q 3878 1594 3878 2328 
Q 3878 3066 3575 3472 
Q 3272 3878 2719 3878 
z
M 2719 4750 
Q 3844 4750 4481 4106 
Q 5119 3463 5119 2328 
Q 5119 1197 4481 553 
Q 3844 -91 2719 -91 
Q 1597 -91 958 553 
Q 319 1197 319 2328 
Q 319 3463 958 4106 
Q 1597 4750 2719 4750 
z
" transform="scale(0.015625)"/>
     </defs>
     <use xlink:href="#DejaVuSans-Bold-4f"/>
     <use xlink:href="#DejaVuSans-Bold-75" transform="translate(85.009766 0)"/>
     <use xlink:href="#DejaVuSans-Bold-74" transform="translate(156.201172 0)"/>
     <use xlink:href="#DejaVuSans-Bold-70" transform="translate(204.003906 0)"/>
     <use xlink:href="#DejaVuSans-Bold-75" transform="translate(275.585938 0)"/>
     <use xlink:href="#DejaVuSans-Bold-74" transform="translate(346.777344 0)"/>
     <use xlink:href="#DejaVuSans-Bold-73" transform="translate(394.580078 0)"/>
    </g>
   </g>
   <g id="text_17">
    <!-- Max detectable redshift z_max -->
    <g style="fill: #333333" transform="translate(73.548 964.974844) scale(0.13 -0.13)">
     <defs>
      <path id="DejaVuSans-62" d="M 3116 1747 
Q 3116 2381 2855 2742 
Q 2594 3103 2138 3103 
Q 1681 3103 1420 2742 
Q 1159 2381 1159 1747 
Q 1159 1113 1420 752 
Q 1681 391 2138 391 
Q 2594 391 2855 752 
Q 3116 1113 3116 1747 
z
M 1159 2969 
Q 1341 3281 1617 3432 
Q 1894 3584 2278 3584 
Q 2916 3584 3314 3078 
Q 3713 2572 3713 1747 
Q 3713 922 3314 415 
Q 2916 -91 2278 -91 
Q 1894 -91 1617 61 
Q 1341 213 1159 525 
L 1159 0 
L 581 0 
L 581 4863 
L 1159 4863 
L 1159 2969 
z
" transform="scale(0.015625)"/>
     </defs>
     <use xlink:href="#DejaVuSans-4d"/>
     <use xlink:href="#DejaVuSans-61" transform="translate(86.279297 0)"/>
     <use xlink:href="#DejaVuSans-78" transform="translate(147.558594 0)"/>
     <use xlink:href="#DejaVuSans-20" transform="translate(206.738281 0)"/>
     <use xlink:href="#DejaVuSans-64" transform="translate(238.525391 0)"/>
     <use xlink:href="#DejaVuSans-65" transform="translate(302.001953 0)"/>
     <use xlink:href="#DejaVuSans-74" transform="translate(363.525391 0)"/>
     <use xlink:href="#DejaVuSans-65" transform="translate(402.734375 0)"/>
     <use xlink:href="#DejaVuSans-63" transform="translate(464.257812 0)"/>
     <use xlink:href="#DejaVuSans-74" transform="translate(519.238281 0)"/>
     <use xlink:href="#DejaVuSans-61" transform="translate(558.447266 0)"/>
     <use xlink:href="#DejaVuSans-62" transform="translate(619.726562 0)"/>
     <use xlink:href="#DejaVuSans-6c" transform="translate(683.203125 0)"/>
     <use xlink:href="#DejaVuSans-65" transform="translate(710.986328 0)"/>
     <use xlink:href="#DejaVuSans-20" transform="translate(772.509766 0)"/>
     <use xlink:href="#DejaVuSans-72" transform="translate(804.296875 0)"/>
     <use xlink:href="#DejaVuSans-65" transform="translate(843.160156 0)"/>
     <use xlink:href="#DejaVuSans-64" transform="translate(904.683594 0)"/>
     <use xlink:href="#DejaVuSans-73" transform="translate(968.160156 0)"/>
     <use xlink:href="#DejaVuSans-68" transform="translate(1020.259766 0)"/>
     <use xlink:href="#DejaVuSans-69" transform="translate(1083.638672 0)"/>
     <use xlink:href="#DejaVuSans-66" transform="translate(1111.421875 0)"/>
     <use xlink:href="#DejaVuSans-74" transform="translate(1144.876953 0)"/>
     <use xlink:href="#DejaVuSans-20" transform="translate(1184.085938 0)"/>
     <use xlink:href="#DejaVuSans-7a" transform="translate(1215.873047 0)"/>
     <use xlink:href="#DejaVuSans-5f" transform="translate(1268.363281 0)"/>
     <use xlink:href="#DejaVuSans-6d" transform="translate(1318.363281 0)"/>
     <use xlink:href="#DejaVuSans-61" transform="translate(1415.775391 0)"/>
     <use xlink:href="#DejaVuSans-78" transform="translate(1477.054688 0)"/>
    </g>
   </g>
   <g id="text_18">
    <!-- Key formulas: -->
    <g style="fill: #006064" transform="translate(63.072 1047.168) scale(0.15 -0.15)">
     <defs>
      <path id="DejaVuSans-Bold-4b" d="M 588 4666 
L 1791 4666 
L 1791 2963 
L 3525 4666 
L 4922 4666 
L 2675 2456 
L 5153 0 
L 3647 0 
L 1791 1838 
L 1791 0 
L 588 0 
L 588 4666 
z
" transform="scale(0.015625)"/>
      <path id="DejaVuSans-Bold-79" d="M 78 3500 
L 1197 3500 
L 2138 1125 
L 2938 3500 
L 4056 3500 
L 2584 -331 
Q 2363 -916 2067 -1148 
Q 1772 -1381 1288 -1381 
L 641 -1381 
L 641 -647 
L 991 -647 
Q 1275 -647 1404 -556 
Q 1534 -466 1606 -231 
L 1638 -134 
L 78 3500 
z
" transform="scale(0.015625)"/>
      <path id="DejaVuSans-Bold-3a" d="M 716 3500 
L 1844 3500 
L 1844 2291 
L 716 2291 
L 716 3500 
z
M 716 1209 
L 1844 1209 
L 1844 0 
L 716 0 
L 716 1209 
z
" transform="scale(0.015625)"/>
     </defs>
     <use xlink:href="#DejaVuSans-Bold-4b"/>
     <use xlink:href="#DejaVuSans-Bold-65" transform="translate(75.740234 0)"/>
     <use xlink:href="#DejaVuSans-Bold-79" transform="translate(143.5625 0)"/>
     <use xlink:href="#DejaVuSans-Bold-20" transform="translate(208.748047 0)"/>
     <use xlink:href="#DejaVuSans-Bold-66" transform="translate(243.5625 0)"/>
     <use xlink:href="#DejaVuSans-Bold-6f" transform="translate(287.068359 0)"/>
     <use xlink:href="#DejaVuSans-Bold-72" transform="translate(355.769531 0)"/>
     <use xlink:href="#DejaVuSans-Bold-6d" transform="translate(405.085938 0)"/>
     <use xlink:href="#DejaVuSans-Bold-75" transform="translate(509.285156 0)"/>
     <use xlink:href="#DejaVuSans-Bold-6c" transform="translate(580.476562 0)"/>
     <use xlink:href="#DejaVuSans-Bold-61" transform="translate(614.753906 0)"/>
     <use xlink:href="#DejaVuSans-Bold-73" transform="translate(682.234375 0)"/>
     <use xlink:href="#DejaVuSans-Bold-3a" transform="translate(741.755859 0)"/>
    </g>
   </g>
   <g id="text_19">
    <!-- $\mathbf{norm}_{\mathrm{new}} = \mathbf{norm}_0 \times \left(\frac{1+z_0}{1+z}\right)^\alpha \times \left(\frac{r_c^2(z_0)}{r_c^2(z)}\right)$ -->
    <g style="fill: #d84315" transform="translate(63.072 1075.428) scale(0.17 -0.17)">
     <defs>
      <path id="STIXSizeTwoSym-Regular-28" d="M 3219 -1555 
L 3219 -1786 
Q 2144 -774 1517 730 
Q 890 2234 890 4115 
Q 890 6003 1533 7593 
Q 2176 9184 3219 10022 
L 3219 9811 
Q 2490 9062 1994 7606 
Q 1498 6150 1498 4115 
Q 1498 563 3219 -1555 
z
" transform="scale(0.015625)"/>
      <path id="DejaVuSans-Oblique-7a" d="M 744 3500 
L 3475 3500 
L 3372 2975 
L 738 459 
L 2913 459 
L 2822 0 
L -19 0 
L 84 525 
L 2719 3041 
L 653 3041 
L 744 3500 
z
" transform="scale(0.015625)"/>
      <path id="STIXSizeTwoSym-Regular-29" d="M 730 9792 
L 730 10022 
Q 1805 9011 2432 7507 
Q 3059 6003 3059 4115 
Q 3059 2234 2416 643 
Q 1773 -947 730 -1786 
L 730 -1574 
Q 1459 -826 1955 633 
Q 2451 2093 2451 4115 
Q 2451 7674 730 9792 
z
" transform="scale(0.015625)"/>
      <path id="DejaVuSans-Oblique-3b1" d="M 2619 1628 
L 2622 2350 
Q 2625 3088 2069 3091 
Q 1653 3094 1394 2747 
Q 1069 2319 959 1747 
Q 825 1059 994 731 
Q 1169 397 1547 397 
Q 1966 397 2319 1063 
L 2619 1628 
z
M 2166 3578 
Q 3141 3594 3128 2584 
Q 3128 2584 3616 3500 
L 4128 3500 
L 3119 1603 
L 3109 919 
Q 3109 766 3194 638 
Q 3291 488 3391 488 
L 3669 488 
L 3575 0 
L 3228 0 
Q 2934 0 2722 263 
Q 2622 394 2619 669 
Q 2416 334 2066 50 
Q 1900 -81 1453 -78 
Q 722 -72 456 397 
Q 184 884 353 1747 
Q 534 2675 1009 3097 
Q 1544 3569 2166 3578 
z
" transform="scale(0.015625)"/>
      <path id="STIXSizeThreeSym-Regular-28" d="M 4269 -2214 
L 4269 -2522 
Q 2835 -1178 2000 838 
Q 1165 2854 1165 5350 
Q 1165 7878 2019 9990 
Q 2874 12102 4269 13222 
L 4269 12941 
Q 3814 12467 3408 11785 
Q 3002 11104 2646 10173 
Q 2291 9242 2080 7990 
Q 1869 6739 1869 5350 
Q 1869 4218 2013 3190 
Q 2157 2163 2381 1398 
Q 2605 634 2934 -73 
Q 3264 -781 3577 -1264 
Q 3891 -1747 4269 -2214 
z
" transform="scale(0.015625)"/>
      <path id="DejaVuSans-Oblique-72" d="M 2853 2969 
Q 2766 3016 2653 3041 
Q 2541 3066 2413 3066 
Q 1953 3066 1609 2717 
Q 1266 2369 1153 1784 
L 800 0 
L 225 0 
L 909 3500 
L 1484 3500 
L 1375 2956 
Q 1603 3259 1920 3421 
Q 2238 3584 2597 3584 
Q 2691 3584 2781 3573 
Q 2872 3563 2963 3538 
L 2853 2969 
z
" transform="scale(0.015625)"/>
      <path id="DejaVuSans-32" d="M 1228 531 
L 3431 531 
L 3431 0 
L 469 0 
L 469 531 
Q 828 903 1448 1529 
Q 2069 2156 2228 2338 
Q 2531 2678 2651 2914 
Q 2772 3150 2772 3378 
Q 2772 3750 2511 3984 
Q 2250 4219 1831 4219 
Q 1534 4219 1204 4116 
Q 875 4013 500 3803 
L 500 4441 
Q 881 4594 1212 4672 
Q 1544 4750 1819 4750 
Q 2544 4750 2975 4387 
Q 3406 4025 3406 3419 
Q 3406 3131 3298 2873 
Q 3191 2616 2906 2266 
Q 2828 2175 2409 1742 
Q 1991 1309 1228 531 
z
" transform="scale(0.015625)"/>
      <path id="DejaVuSans-Oblique-63" d="M 3431 3366 
L 3316 2797 
Q 3109 2947 2876 3022 
Q 2644 3097 2394 3097 
Q 2119 3097 1870 3000 
Q 1622 2903 1453 2725 
Q 1184 2453 1037 2087 
Q 891 1722 891 1331 
Q 891 859 1127 628 
Q 1363 397 1844 397 
Q 2081 397 2348 469 
Q 2616 541 2906 684 
L 2797 116 
Q 2547 13 2283 -39 
Q 2019 -91 1741 -91 
Q 1044 -91 669 257 
Q 294 606 294 1253 
Q 294 1797 489 2255 
Q 684 2713 1069 3078 
Q 1331 3328 1684 3456 
Q 2038 3584 2456 3584 
Q 2700 3584 2940 3529 
Q 3181 3475 3431 3366 
z
" transform="scale(0.015625)"/>
      <path id="STIXSizeThreeSym-Regular-29" d="M 531 12915 
L 531 13222 
Q 1965 11872 2800 9869 
Q 3635 7866 3635 5350 
Q 3635 2835 2777 716 
Q 1920 -1402 531 -2522 
L 531 -2240 
Q 986 -1766 1392 -1084 
Q 1798 -403 2153 528 
Q 2509 1459 2720 2710 
Q 2931 3962 2931 5350 
Q 2931 9990 531 12915 
z
" transform="scale(0.015625)"/>
     </defs>
     <use xlink:href="#DejaVuSans-Bold-6e" transform="translate(0 0.201719)"/>
     <use xlink:href="#DejaVuSans-Bold-6f" transform="translate(71.191406 0.201719)"/>
     <use xlink:href="#DejaVuSans-Bold-72" transform="translate(139.892578 0.201719)"/>
     <use xlink:href="#DejaVuSans-Bold-6d" transform="translate(189.208984 0.201719)"/>
     <use xlink:href="#DejaVuSans-6e" transform="translate(294.365234 -16.204531) scale(0.7)"/>
     <use xlink:href="#DejaVuSans-65" transform="translate(338.730469 -16.204531) scale(0.7)"/>
     <use xlink:href="#DejaVuSans-77" transform="translate(381.796875 -16.204531) scale(0.7)"/>
     <use xlink:href="#DejaVuSans-3d" transform="translate(461.264648 0.201719)"/>
     <use xlink:href="#DejaVuSans-Bold-6e" transform="translate(564.536133 0.201719)"/>
     <use xlink:href="#DejaVuSans-Bold-6f" transform="translate(635.727539 0.201719)"/>
     <use xlink:href="#DejaVuSans-Bold-72" transform="translate(704.428711 0.201719)"/>
     <use xlink:href="#DejaVuSans-Bold-6d" transform="translate(753.745117 0.201719)"/>
     <use xlink:href="#DejaVuSans-30" transform="translate(858.901367 -16.204531) scale(0.7)"/>
     <use xlink:href="#DejaVuSans-d7" transform="translate(925.654297 0.201719)"/>
     <use xlink:href="#STIXSizeTwoSym-Regular-28" transform="translate(1028.925781 -16.285781) scale(0.788617)"/>
     <use xlink:href="#DejaVuSans-31" transform="translate(1075.373947 56.179688) scale(0.7)"/>
     <use xlink:href="#DejaVuSans-2b" transform="translate(1133.547775 56.179688) scale(0.7)"/>
     <use xlink:href="#DejaVuSans-Oblique-7a" transform="translate(1205.837814 56.179688) scale(0.7)"/>
     <use xlink:href="#DejaVuSans-30" transform="translate(1242.580978 44.695312) scale(0.49)"/>
     <use xlink:href="#DejaVuSans-31" transform="translate(1092.373947 -38.285781) scale(0.7)"/>
     <use xlink:href="#DejaVuSans-2b" transform="translate(1150.547775 -38.285781) scale(0.7)"/>
     <use xlink:href="#DejaVuSans-Oblique-7a" transform="translate(1222.837814 -38.285781) scale(0.7)"/>
     <use xlink:href="#STIXSizeTwoSym-Regular-29" transform="translate(1288.170334 -16.285781) scale(0.788617)"/>
     <use xlink:href="#DejaVuSans-Oblique-3b1" transform="translate(1337.073868 38.482969) scale(0.7)"/>
     <use xlink:href="#DejaVuSans-d7" transform="translate(1405.433243 0.201719)"/>
     <use xlink:href="#STIXSizeThreeSym-Regular-28" transform="translate(1508.704727 -38.659063) scale(0.801841)"/>
     <use xlink:href="#DejaVuSans-Oblique-72" transform="translate(1568.833633 63.835938) scale(0.7)"/>
     <use xlink:href="#DejaVuSans-32" transform="translate(1600.867857 90.632812) scale(0.49)"/>
     <use xlink:href="#DejaVuSans-Oblique-63" transform="translate(1597.61293 44.695312) scale(0.49)"/>
     <use xlink:href="#DejaVuSans-28" transform="translate(1633.957213 63.835938) scale(0.7)"/>
     <use xlink:href="#DejaVuSans-Oblique-7a" transform="translate(1661.266783 63.835938) scale(0.7)"/>
     <use xlink:href="#DejaVuSans-30" transform="translate(1698.009947 52.351562) scale(0.49)"/>
     <use xlink:href="#DejaVuSans-29" transform="translate(1731.099303 63.835938) scale(0.7)"/>
     <use xlink:href="#DejaVuSans-Oblique-72" transform="translate(1585.833633 -50.415469) scale(0.7)"/>
     <use xlink:href="#DejaVuSans-32" transform="translate(1617.867857 -23.618594) scale(0.49)"/>
     <use xlink:href="#DejaVuSans-Oblique-63" transform="translate(1614.61293 -69.556094) scale(0.49)"/>
     <use xlink:href="#DejaVuSans-28" transform="translate(1650.957213 -50.415469) scale(0.7)"/>
     <use xlink:href="#DejaVuSans-Oblique-7a" transform="translate(1678.266783 -50.415469) scale(0.7)"/>
     <use xlink:href="#DejaVuSans-29" transform="translate(1715.009947 -50.415469) scale(0.7)"/>
     <use xlink:href="#STIXSizeThreeSym-Regular-29" transform="translate(1770.908873 -38.659063) scale(0.801841)"/>
     <path d="M 1075.373947 18.998594 
L 1075.373947 25.248594 
L 1275.670334 25.248594 
L 1275.670334 18.998594 
L 1075.373947 18.998594 
z
"/>
     <path d="M 1568.833633 18.998594 
L 1568.833633 25.248594 
L 1758.408873 25.248594 
L 1758.408873 18.998594 
L 1568.833633 18.998594 
z
"/>
    </g>
   </g>
   <g id="text_20">
    <!-- $\mathbf{SNR} = \sqrt{2\left[N_{on}\ln\frac{(1+\alpha)N_{on}}{\alpha(N_{on}+N_{off})} + N_{off}\ln\frac{(1+\alpha)N_{off}}{N_{on}+N_{off}}\right]}$ -->
    <g style="fill: #6a1b9a" transform="translate(63.072 1111.6008) scale(0.16 -0.16)">
     <defs>
      <path id="STIXSizeOneSym-Regular-221a" d="M 6970 9933 
L 3373 -1888 
L 3104 -1888 
L 1626 2918 
Q 1555 3149 1465 3251 
Q 1376 3354 1229 3354 
Q 1011 3354 794 3181 
L 717 3309 
L 1766 4115 
L 1926 4115 
L 3379 -602 
L 3405 -602 
L 6605 9933 
L 6970 9933 
z
" transform="scale(0.015625)"/>
      <path id="STIXSizeTwoSym-Regular-5b" d="M 2701 -1786 
L 1216 -1786 
L 1216 10022 
L 2701 10022 
L 2701 9766 
L 1702 9766 
L 1702 -1530 
L 2701 -1530 
L 2701 -1786 
z
" transform="scale(0.015625)"/>
      <path id="DejaVuSans-Oblique-4e" d="M 1081 4666 
L 1931 4666 
L 3219 666 
L 4000 4666 
L 4616 4666 
L 3706 0 
L 2853 0 
L 1569 4025 
L 788 0 
L 172 0 
L 1081 4666 
z
" transform="scale(0.015625)"/>
      <path id="DejaVuSans-Oblique-6f" d="M 1625 -91 
Q 1009 -91 651 289 
Q 294 669 294 1325 
Q 294 1706 417 2101 
Q 541 2497 738 2766 
Q 1047 3184 1428 3384 
Q 1809 3584 2291 3584 
Q 2888 3584 3255 3212 
Q 3622 2841 3622 2241 
Q 3622 1825 3500 1412 
Q 3378 1000 3181 728 
Q 2875 309 2494 109 
Q 2113 -91 1625 -91 
z
M 891 1344 
Q 891 869 1089 633 
Q 1288 397 1691 397 
Q 2269 397 2648 901 
Q 3028 1406 3028 2181 
Q 3028 2634 2825 2865 
Q 2622 3097 2228 3097 
Q 1903 3097 1650 2945 
Q 1397 2794 1197 2484 
Q 1050 2253 970 1956 
Q 891 1659 891 1344 
z
" transform="scale(0.015625)"/>
      <path id="DejaVuSans-Oblique-6e" d="M 3566 2113 
L 3156 0 
L 2578 0 
L 2988 2091 
Q 3016 2238 3031 2350 
Q 3047 2463 3047 2528 
Q 3047 2791 2881 2937 
Q 2716 3084 2419 3084 
Q 1956 3084 1622 2776 
Q 1288 2469 1184 1941 
L 800 0 
L 225 0 
L 903 3500 
L 1478 3500 
L 1363 2950 
Q 1603 3253 1940 3418 
Q 2278 3584 2650 3584 
Q 3113 3584 3367 3334 
Q 3622 3084 3622 2631 
Q 3622 2519 3608 2391 
Q 3594 2263 3566 2113 
z
" transform="scale(0.015625)"/>
      <path id="DejaVuSans-Oblique-66" d="M 3059 4863 
L 2969 4384 
L 2419 4384 
Q 2106 4384 1964 4261 
Q 1822 4138 1753 3809 
L 1691 3500 
L 2638 3500 
L 2553 3053 
L 1606 3053 
L 1013 0 
L 434 0 
L 1031 3053 
L 481 3053 
L 563 3500 
L 1113 3500 
L 1159 3744 
Q 1278 4363 1576 4613 
Q 1875 4863 2516 4863 
L 3059 4863 
z
" transform="scale(0.015625)"/>
      <path id="STIXSizeTwoSym-Regular-5d" d="M 1722 -1786 
L 237 -1786 
L 237 -1530 
L 1235 -1530 
L 1235 9766 
L 237 9766 
L 237 10022 
L 1722 10022 
L 1722 -1786 
z
" transform="scale(0.015625)"/>
     </defs>
     <use xlink:href="#DejaVuSans-Bold-53" transform="translate(0 0.668594)"/>
     <use xlink:href="#DejaVuSans-Bold-4e" transform="translate(72.021484 0.668594)"/>
     <use xlink:href="#DejaVuSans-Bold-52" transform="translate(153.087891 0.668594)"/>
     <use xlink:href="#DejaVuSans-3d" transform="translate(249.572266 0.668594)"/>
     <use xlink:href="#STIXSizeOneSym-Regular-221a" transform="translate(352.84375 -21.234375) scale(1.045392)"/>
     <use xlink:href="#DejaVuSans-32" transform="translate(475.833282 0.659531)"/>
     <use xlink:href="#STIXSizeTwoSym-Regular-5b" transform="translate(539.456329 -27.618437) scale(0.877166)"/>
     <use xlink:href="#DejaVuSans-Oblique-4e" transform="translate(579.712067 0.659531)"/>
     <use xlink:href="#DejaVuSans-Oblique-6f" transform="translate(654.516754 -15.746719) scale(0.7)"/>
     <use xlink:href="#DejaVuSans-Oblique-6e" transform="translate(697.343903 -15.746719) scale(0.7)"/>
     <use xlink:href="#DejaVuSans-6c" transform="translate(744.443512 0.659531)"/>
     <use xlink:href="#DejaVuSans-6e" transform="translate(772.226715 0.659531)"/>
     <use xlink:href="#DejaVuSans-28" transform="translate(888.841298 56.6375) scale(0.7)"/>
     <use xlink:href="#DejaVuSans-31" transform="translate(916.150868 56.6375) scale(0.7)"/>
     <use xlink:href="#DejaVuSans-2b" transform="translate(974.324696 56.6375) scale(0.7)"/>
     <use xlink:href="#DejaVuSans-Oblique-3b1" transform="translate(1046.614735 56.6375) scale(0.7)"/>
     <use xlink:href="#DejaVuSans-29" transform="translate(1092.757313 56.6375) scale(0.7)"/>
     <use xlink:href="#DejaVuSans-Oblique-4e" transform="translate(1120.066884 56.6375) scale(0.7)"/>
     <use xlink:href="#DejaVuSans-Oblique-6f" transform="translate(1172.430165 45.153125) scale(0.49)"/>
     <use xlink:href="#DejaVuSans-Oblique-6e" transform="translate(1202.409169 45.153125) scale(0.49)"/>
     <use xlink:href="#DejaVuSans-Oblique-3b1" transform="translate(851.841298 -39.906094) scale(0.7)"/>
     <use xlink:href="#DejaVuSans-28" transform="translate(897.983876 -39.906094) scale(0.7)"/>
     <use xlink:href="#DejaVuSans-Oblique-4e" transform="translate(925.293446 -39.906094) scale(0.7)"/>
     <use xlink:href="#DejaVuSans-Oblique-6f" transform="translate(977.656727 -51.390469) scale(0.49)"/>
     <use xlink:href="#DejaVuSans-Oblique-6e" transform="translate(1007.635731 -51.390469) scale(0.49)"/>
     <use xlink:href="#DejaVuSans-2b" transform="translate(1054.243153 -39.906094) scale(0.7)"/>
     <use xlink:href="#DejaVuSans-Oblique-4e" transform="translate(1126.533192 -39.906094) scale(0.7)"/>
     <use xlink:href="#DejaVuSans-Oblique-6f" transform="translate(1178.896473 -51.390469) scale(0.49)"/>
     <use xlink:href="#DejaVuSans-Oblique-66" transform="translate(1208.875477 -51.390469) scale(0.49)"/>
     <use xlink:href="#DejaVuSans-Oblique-66" transform="translate(1226.125966 -51.390469) scale(0.49)"/>
     <use xlink:href="#DejaVuSans-29" transform="translate(1245.290516 -39.906094) scale(0.7)"/>
     <use xlink:href="#DejaVuSans-2b" transform="translate(1304.582509 0.659531)"/>
     <use xlink:href="#DejaVuSans-Oblique-4e" transform="translate(1407.853993 0.659531)"/>
     <use xlink:href="#DejaVuSans-Oblique-6f" transform="translate(1482.65868 -15.746719) scale(0.7)"/>
     <use xlink:href="#DejaVuSans-Oblique-66" transform="translate(1525.485829 -15.746719) scale(0.7)"/>
     <use xlink:href="#DejaVuSans-Oblique-66" transform="translate(1550.129384 -15.746719) scale(0.7)"/>
     <use xlink:href="#DejaVuSans-6c" transform="translate(1577.507313 0.659531)"/>
     <use xlink:href="#DejaVuSans-6e" transform="translate(1605.290516 0.659531)"/>
     <use xlink:href="#DejaVuSans-28" transform="translate(1684.905099 56.6375) scale(0.7)"/>
     <use xlink:href="#DejaVuSans-31" transform="translate(1712.214669 56.6375) scale(0.7)"/>
     <use xlink:href="#DejaVuSans-2b" transform="translate(1770.388497 56.6375) scale(0.7)"/>
     <use xlink:href="#DejaVuSans-Oblique-3b1" transform="translate(1842.678536 56.6375) scale(0.7)"/>
     <use xlink:href="#DejaVuSans-29" transform="translate(1888.821115 56.6375) scale(0.7)"/>
     <use xlink:href="#DejaVuSans-Oblique-4e" transform="translate(1916.130685 56.6375) scale(0.7)"/>
     <use xlink:href="#DejaVuSans-Oblique-6f" transform="translate(1968.493966 45.153125) scale(0.49)"/>
     <use xlink:href="#DejaVuSans-Oblique-66" transform="translate(1998.47297 45.153125) scale(0.49)"/>
     <use xlink:href="#DejaVuSans-Oblique-66" transform="translate(2015.723458 45.153125) scale(0.49)"/>
     <use xlink:href="#DejaVuSans-Oblique-4e" transform="translate(1699.905099 -37.827969) scale(0.7)"/>
     <use xlink:href="#DejaVuSans-Oblique-6f" transform="translate(1752.26838 -49.312344) scale(0.49)"/>
     <use xlink:href="#DejaVuSans-Oblique-6e" transform="translate(1782.247384 -49.312344) scale(0.49)"/>
     <use xlink:href="#DejaVuSans-2b" transform="translate(1828.854806 -37.827969) scale(0.7)"/>
     <use xlink:href="#DejaVuSans-Oblique-4e" transform="translate(1901.144845 -37.827969) scale(0.7)"/>
     <use xlink:href="#DejaVuSans-Oblique-6f" transform="translate(1953.508126 -49.312344) scale(0.49)"/>
     <use xlink:href="#DejaVuSans-Oblique-66" transform="translate(1983.48713 -49.312344) scale(0.49)"/>
     <use xlink:href="#DejaVuSans-Oblique-66" transform="translate(2000.737618 -49.312344) scale(0.49)"/>
     <use xlink:href="#STIXSizeTwoSym-Regular-5d" transform="translate(2047.388009 -27.618437) scale(0.877166)"/>
     <path d="M 463.333282 134.5 
L 463.333282 140.75 
L 2100.143746 140.75 
L 2100.143746 134.5 
L 463.333282 134.5 
z
"/>
     <path d="M 851.841298 19.456406 
L 851.841298 25.706406 
L 1272.600087 25.706406 
L 1272.600087 19.456406 
L 851.841298 19.456406 
z
"/>
     <path d="M 1684.905099 19.456406 
L 1684.905099 25.706406 
L 2034.888009 25.706406 
L 2034.888009 19.456406 
L 1684.905099 19.456406 
z
"/>
    </g>
   </g>
  </g>
 </g>
 <defs>
  <clipPath id="p8865e00dca">
   <rect x="7.2" y="7.2" width="698.4" height="1130.4"/>
  </clipPath>
 </defs>
</svg>
